<svg xmlns="http://www.w3.org/2000/svg" width="500" height="195" viewBox="0 0 500 195" version="1.1"><path d="M 80.736 10.598 C 80.407 10.927, 80.380 11.827, 80.676 12.598 C 81.085 13.663, 83.471 14, 90.607 14 C 99.333 14, 100 13.858, 100 12 C 100 10.143, 99.333 10, 90.667 10 C 85.533 10, 81.064 10.269, 80.736 10.598 M 104.336 11.567 C 104.054 12.303, 104.082 13.324, 104.399 13.837 C 105.316 15.320, 114.083 16.317, 115.321 15.079 C 116.954 13.446, 115.078 12.141, 109.633 11.124 C 105.925 10.431, 104.734 10.531, 104.336 11.567 M 69.580 12.336 C 65.480 13.573, 64.516 14.687, 65.797 16.705 C 67.076 18.719, 77 15.370, 77 12.925 C 77 10.719, 75.370 10.590, 69.580 12.336 M 119.667 14.667 C 118.077 16.256, 119.320 17.808, 123.897 19.952 C 126.590 21.213, 129.290 21.939, 129.897 21.564 C 132.207 20.136, 130.823 18.170, 126.065 16.123 C 120.517 13.737, 120.582 13.751, 119.667 14.667 M 55.213 17.618 C 50.531 19.722, 50.045 20.216, 50.967 21.939 C 51.995 23.860, 52.067 23.858, 56.754 21.825 C 62.809 19.198, 63.276 18.730, 61.754 16.818 C 60.625 15.400, 59.973 15.480, 55.213 17.618 M 133.483 22.053 C 133.117 23.207, 132.971 24.248, 133.159 24.367 C 133.346 24.486, 135.467 25.844, 137.870 27.385 C 141.858 29.942, 142.379 30.049, 143.825 28.604 C 145.618 26.810, 144.945 26.074, 137.824 22.039 L 134.149 19.956 133.483 22.053 M 41.631 25.621 C 37.332 28.774, 36.936 29.365, 38.244 30.672 C 39.551 31.980, 40.261 31.775, 44.313 28.919 C 48.150 26.214, 48.740 25.383, 47.916 23.842 C 47.373 22.829, 46.833 22.011, 46.715 22.025 C 46.597 22.038, 44.309 23.657, 41.631 25.621 M 146.433 31.109 C 146.055 31.721, 147.570 34.041, 149.812 36.283 C 153.327 39.798, 154.094 40.167, 155.484 39.013 C 156.926 37.816, 156.706 37.283, 153.343 33.839 C 149.496 29.899, 147.635 29.164, 146.433 31.109 M 29.703 35.792 C 27.666 37.878, 26 40.080, 26 40.685 C 26 42.160, 28.782 43.162, 29.527 41.956 C 29.852 41.430, 31.104 40.964, 32.309 40.921 C 33.524 40.877, 33.910 40.607, 33.177 40.313 C 32.188 39.918, 32.410 39.193, 34.053 37.443 C 36.095 35.270, 36.204 32, 34.234 32 C 33.779 32, 31.740 33.706, 29.703 35.792 M 37 42.015 C 38.251 42.837, 38.127 43.102, 36.250 43.617 C 35.013 43.956, 34 44.581, 34 45.005 C 34 45.430, 32.350 46.087, 30.333 46.465 C 27.524 46.992, 26.459 46.784, 25.783 45.577 C 24.282 42.894, 22.361 43.809, 19.158 48.733 C 16.445 52.904, 16.272 53.573, 17.701 54.373 C 18.929 55.060, 19.952 54.511, 21.911 52.113 C 23.738 49.878, 26.074 48.532, 29.851 47.537 C 36.830 45.699, 42.193 40.972, 37.250 41.015 C 35.752 41.028, 35.716 41.172, 37 42.015 M 157.369 42.480 C 156.779 44.019, 162.435 52, 164.115 52 C 166.461 52, 165.944 48.717, 163.015 45.020 C 159.611 40.721, 158.275 40.120, 157.369 42.480 M 44.759 45.187 C 45.264 47.118, 46.163 47.331, 49.750 46.370 C 53.695 45.312, 52.487 42.890, 48.143 43.147 C 44.964 43.334, 44.368 43.693, 44.759 45.187 M 31.435 57.515 C 27.621 59.429, 23.038 61.887, 21.250 62.977 C 19.462 64.067, 18 64.688, 18 64.357 C 18 64.026, 17.325 64.315, 16.500 65 C 14.574 66.599, 14.601 65.672, 16.594 61.818 C 17.912 59.270, 17.955 58.587, 16.844 57.883 C 16.105 57.414, 15.184 57.024, 14.797 57.015 C 13.787 56.993, 9.859 66.191, 10.342 67.448 C 10.564 68.026, 10.690 68.768, 10.623 69.096 C 10.555 69.424, 11.141 70.465, 11.925 71.409 C 13.223 72.973, 13.117 73.067, 10.738 72.470 C 8.341 71.869, 8.035 72.158, 6.998 76.006 C 6.378 78.311, 5.964 81.390, 6.078 82.848 C 6.193 84.307, 5.960 86.259, 5.561 87.187 C 5.161 88.115, 4.984 94.482, 5.167 101.335 C 5.453 112.022, 5.779 114.104, 7.460 115.959 C 8.906 117.555, 9.102 118.319, 8.207 118.872 C 7.274 119.449, 7.379 120.767, 8.659 124.561 C 9.575 127.278, 10.880 130.400, 11.558 131.500 C 12.237 132.600, 13.126 134.625, 13.535 136 C 15.041 141.070, 23.526 152.717, 31.200 160.250 C 35.542 164.512, 39.493 168, 39.980 168 C 40.467 168, 41.149 167.105, 41.496 166.011 C 41.936 164.627, 41.354 163.305, 39.580 161.662 C 36.906 159.183, 37.042 157.706, 39.848 158.756 C 41.281 159.292, 41.319 159.152, 40.137 157.698 C 39.387 156.776, 38.305 156.312, 37.732 156.666 C 37.160 157.019, 36.971 156.855, 37.314 156.301 C 37.657 155.746, 35.894 153.160, 33.397 150.554 C 30.901 147.948, 27.335 143.437, 25.475 140.528 C 23.422 137.320, 21.141 135.001, 19.675 134.633 C 17.987 134.210, 16.650 132.590, 15.243 129.263 C 11.973 121.531, 11.666 120, 13.381 120 C 14.568 120, 14.717 119.405, 14.067 117.250 C 10.960 106.937, 9.855 98.585, 10.529 90.499 C 10.917 85.839, 11.601 82.253, 12.048 82.530 C 13.805 83.616, 14.094 80.761, 12.415 78.906 C 10.745 77.061, 10.739 76.832, 12.317 75.255 C 13.243 74.329, 14 74.073, 14 74.686 C 14 76.655, 21.311 76.001, 22.783 73.900 C 23.515 72.855, 24.763 72, 25.557 72 C 26.351 72, 27.032 71.438, 27.070 70.750 C 27.109 70.063, 27.468 70.331, 27.867 71.347 C 28.564 73.118, 28.654 73.120, 30.047 71.405 C 30.935 70.312, 31.014 69.908, 30.250 70.367 C 28.306 71.535, 28.780 70.010, 30.936 68.160 C 32.929 66.451, 39.389 55.055, 38.735 54.402 C 38.534 54.200, 35.249 55.601, 31.435 57.515 M 46.500 54.945 C 45.400 55.388, 44.163 55.554, 43.750 55.316 C 43.337 55.077, 43 55.385, 43 56 C 43 56.615, 42.550 56.840, 42 56.500 C 41.092 55.939, 40.619 57.500, 40.725 60.711 C 40.747 61.377, 40.289 61.827, 39.708 61.711 C 38.394 61.448, 33.544 71.279, 32.659 76 C 32.198 78.457, 32.296 79.053, 32.986 78 C 33.527 77.175, 33.976 75.487, 33.985 74.250 C 33.993 73.013, 34.450 72, 35 72 C 35.550 72, 36.003 71.213, 36.007 70.250 C 36.010 69.287, 36.907 67.150, 38 65.500 C 40.418 61.849, 40.558 63.257, 38.362 69.124 C 36.238 74.797, 35.079 102.598, 36.553 112.500 L 37.149 116.500 35.081 113.500 C 32.378 109.578, 32.392 111.855, 35.099 116.443 C 36.389 118.630, 36.747 120, 36.027 120 C 34.688 120, 36.838 122.348, 41.415 125.884 C 43.112 127.195, 43.712 127.997, 42.750 127.665 C 41.788 127.334, 41 127.303, 41 127.597 C 41 129.761, 47.484 138, 49.187 138 C 49.634 138, 50 137.073, 50 135.941 C 50 134.801, 50.454 134.162, 51.016 134.510 C 51.575 134.856, 51.833 135.462, 51.588 135.857 C 51.344 136.252, 52.307 136.672, 53.729 136.790 C 56.295 137.002, 56.300 136.989, 54.407 134.897 C 53.358 133.738, 52.698 132.725, 52.940 132.645 C 53.181 132.565, 52.858 131.600, 52.220 130.500 C 51.389 129.066, 51.044 128.925, 51 130 C 50.952 131.176, 50.717 131.118, 49.908 129.729 C 49.341 128.755, 48.567 128.149, 48.189 128.383 C 47.455 128.837, 47.009 126.084, 46.724 119.331 C 46.626 117.010, 46.129 115.420, 45.604 115.745 C 45.065 116.078, 44.947 115.580, 45.330 114.582 C 45.699 113.622, 46 112.622, 46 112.359 C 46 112.097, 46.526 112.207, 47.170 112.605 C 47.957 113.091, 48.131 112.783, 47.701 111.664 C 47.350 110.749, 47.390 110, 47.791 110 C 48.191 110, 49.110 109.053, 49.833 107.895 C 50.922 106.152, 50.920 105.920, 49.824 106.542 C 48.042 107.554, 51.870 103.893, 55 101.592 C 56.602 100.414, 56.842 99.978, 55.666 100.378 C 54.474 100.783, 53.974 100.578, 54.237 99.790 C 54.459 99.123, 57.669 97.045, 61.369 95.172 C 68.174 91.727, 69.659 89.877, 64.051 91.832 C 60.117 93.204, 60.138 92.497, 64.093 90.452 C 65.794 89.572, 66.944 88.611, 66.648 88.315 C 65.724 87.390, 71.707 82.980, 73.651 83.153 C 77.576 83.501, 78.568 82.949, 78.788 80.294 C 78.911 78.806, 79.459 77.141, 80.006 76.594 C 81.388 75.212, 81.285 71.706, 79.888 72.569 C 79.277 72.947, 78.433 72.700, 78.013 72.021 C 77.535 71.248, 76.405 71.054, 74.993 71.502 C 73.386 72.012, 73.100 72.444, 74.001 73.001 C 74.847 73.524, 74.288 73.997, 72.310 74.432 C 70.433 74.844, 67.399 77.276, 63.995 81.098 C 58.351 87.434, 58.952 87.201, 51.250 86.038 C 50.402 85.910, 51.209 79.989, 52.155 79.405 C 52.928 78.926, 53.045 79.154, 52.507 80.095 C 52.067 80.868, 52.582 80.600, 53.653 79.500 C 56.572 76.502, 58.682 71, 56.912 71 C 56.410 71, 56 70.475, 56 69.833 C 56 69.192, 56.252 68.919, 56.561 69.227 C 56.869 69.536, 58.198 68.711, 59.515 67.394 C 60.832 66.077, 62.830 65, 63.955 65 C 65.140 65, 66 64.345, 66 63.441 C 66 62.584, 65.581 62.141, 65.069 62.457 C 64.557 62.774, 63.844 62.557, 63.485 61.976 C 63.126 61.394, 61.970 61.192, 60.916 61.527 C 59.628 61.935, 59 61.658, 59 60.683 C 59 59.671, 57.318 59.020, 53.457 58.538 C 48.584 57.929, 47.988 57.613, 48.525 55.923 C 48.860 54.865, 48.992 54.032, 48.817 54.070 C 48.643 54.109, 47.600 54.503, 46.500 54.945 M 166.323 54.638 C 164.353 55.442, 169.576 65.580, 171.742 65.155 C 174.347 64.644, 174.346 64.616, 171.550 59.099 C 168.988 54.043, 168.598 53.710, 166.323 54.638 M 151 55.845 C 151 56.533, 152.125 58.138, 153.500 59.412 C 154.875 60.687, 156 62.635, 156 63.742 C 156 64.849, 156.642 66.288, 157.427 66.939 C 158.226 67.602, 159.160 70.985, 159.550 74.619 C 160.597 84.398, 157.157 95.733, 151.319 101.740 C 148.944 104.184, 147 106.760, 147 107.465 C 147 109.043, 143.142 118.003, 141.666 119.851 C 141.073 120.594, 140.490 121.870, 140.370 122.687 C 140.184 123.951, 140.414 123.935, 141.905 122.586 C 145.486 119.346, 144.971 121.183, 140.569 127.352 C 138.076 130.845, 136.274 133.941, 136.564 134.231 C 137.422 135.089, 129.642 140.795, 124.136 143.346 C 121.333 144.644, 119.300 145.967, 119.619 146.286 C 119.937 146.604, 119.141 146.599, 117.849 146.275 C 115.516 145.690, 115.513 145.700, 117.405 147.843 C 118.453 149.029, 118.903 150.007, 118.405 150.015 C 117.907 150.024, 118.175 150.460, 119 150.985 C 120.132 151.706, 120.627 151.425, 121.017 149.839 C 121.446 148.096, 122.468 147.664, 127.017 147.305 C 134.661 146.702, 135.932 144.983, 130.500 142.592 C 129.120 141.985, 132.208 139.914, 133.687 140.455 C 134.341 140.694, 135.999 139.002, 137.373 136.695 C 138.746 134.388, 141.587 130.475, 143.685 128 C 147.423 123.591, 147.621 123.500, 153.500 123.500 C 158.176 123.500, 159.495 123.169, 159.479 122 C 159.467 121.175, 160.783 118.506, 162.402 116.068 C 164.981 112.186, 165.440 111.876, 166.103 113.568 C 166.738 115.190, 166.871 115.060, 166.930 112.758 C 166.992 110.310, 167.325 110.052, 170.041 110.350 C 174.571 110.846, 175.382 112.288, 175.444 119.950 C 175.499 126.846, 175.512 126.878, 176.764 123.264 C 178.796 117.400, 179.273 113.354, 179.724 98.176 C 180.135 84.343, 180.079 83.833, 178.075 83.309 C 176.934 83.011, 176 82.380, 176 81.908 C 176 81.436, 174.891 81.471, 173.535 81.987 C 170.583 83.109, 170.199 82.609, 169.626 76.900 C 169.081 71.468, 167.394 67.565, 163.500 62.727 C 160.359 58.825, 157.257 57.610, 158.452 60.750 C 158.818 61.712, 157.291 60.721, 155.059 58.547 C 152.826 56.373, 151 55.157, 151 55.845 M 75.015 57.679 C 75.007 58.327, 74.293 59.564, 73.429 60.429 C 72.113 61.744, 72.093 62, 73.306 62 C 75.515 62, 77.041 59.679, 75.958 57.966 C 75.404 57.090, 75.024 56.974, 75.015 57.679 M 138 63.833 C 138 64.712, 136.252 65.042, 131.806 65.001 C 130.273 64.987, 128.665 65.736, 128.074 66.738 C 127.281 68.085, 126.840 68.203, 126.202 67.238 C 125.290 65.859, 119 66.606, 119 68.094 C 119 68.558, 118.438 68.764, 117.750 68.552 C 114.099 67.427, 107.908 67.042, 108.485 67.976 C 108.833 68.539, 111.004 69.053, 113.309 69.118 C 117.268 69.230, 117.334 69.279, 114.500 70 C 112.850 70.420, 112.175 70.861, 113 70.981 C 115.887 71.401, 109.465 72.802, 104 72.944 C 96.345 73.143, 90.124 74.479, 88.702 76.228 C 88.041 77.042, 86.383 78.451, 85.018 79.361 C 82.575 80.987, 82.615 81.005, 87.518 80.473 C 90.258 80.175, 93.994 79.159, 95.821 78.216 C 98.967 76.590, 99.209 76.592, 100.431 78.250 C 102.254 80.724, 103.919 80.429, 103.258 77.750 L 102.704 75.500 105.262 77.840 C 106.835 79.279, 109.300 80.277, 111.660 80.432 C 116.079 80.722, 121.186 82.890, 120.410 84.146 C 120.119 84.616, 120.753 85, 121.819 85 C 122.884 85, 124.315 85.675, 125 86.500 C 126.046 87.760, 125.865 88.013, 123.872 88.079 C 121.332 88.163, 121.864 88.464, 126.291 89.442 C 127.826 89.781, 128.854 90.427, 128.576 90.876 C 128.299 91.326, 129.405 92.972, 131.036 94.534 C 134.357 97.716, 134.755 99, 132.421 99 C 131.215 99, 130.985 99.656, 131.449 101.769 C 131.833 103.516, 131.505 105.270, 130.561 106.519 C 128.564 109.161, 128.630 109.732, 131.082 111.044 C 132.794 111.960, 133.858 111.698, 137.082 109.565 C 141.943 106.348, 142.141 107.502, 137.500 112 C 135.575 113.866, 134 115.829, 134 116.363 C 134 116.897, 134.293 117.040, 134.651 116.682 C 135.009 116.324, 135.797 116.668, 136.401 117.446 C 137.006 118.225, 138.385 119.005, 139.468 119.181 C 141.072 119.441, 141.875 118.299, 143.817 113 C 145.985 107.082, 146.150 105.426, 145.661 94.500 C 145.365 87.900, 144.711 81.150, 144.207 79.500 C 143.703 77.850, 143.644 75.600, 144.075 74.500 C 144.721 72.852, 144.872 73.051, 144.930 75.628 C 144.968 77.348, 145.710 80.456, 146.579 82.534 C 147.447 84.611, 148.463 89.954, 148.837 94.406 L 149.516 102.500 152.758 96.090 C 154.541 92.565, 155.980 88.740, 155.956 87.590 C 155.928 86.254, 155.420 86.879, 154.548 89.324 C 152.503 95.060, 152.186 94.783, 152.233 87.302 C 152.287 78.617, 149.720 69.456, 146.792 67.889 C 145.601 67.251, 143.725 65.890, 142.624 64.865 C 140.557 62.939, 138 62.368, 138 63.833 M 172.471 69.047 C 172.115 69.624, 172.358 72.324, 173.011 75.047 C 173.919 78.830, 174.648 80, 176.100 80 C 178.294 80, 178.436 78.619, 176.881 72.443 C 175.820 68.228, 173.894 66.745, 172.471 69.047 M 232.110 71.250 C 231.648 72.487, 229.997 79.241, 228.442 86.257 C 226.886 93.273, 225.317 98.673, 224.954 98.257 C 224.591 97.841, 223.229 92.146, 221.927 85.602 C 219.522 73.511, 218.329 71, 214.988 71 C 212.472 71, 212.231 71.538, 210.436 81.161 C 208.391 92.122, 205.339 102.380, 202.386 108.217 C 199.253 114.411, 199.350 115.190, 203.215 114.813 C 206.251 114.517, 206.554 114.109, 208.637 107.500 C 209.851 103.650, 211.158 97.667, 211.543 94.205 C 211.928 90.742, 212.368 88.042, 212.522 88.205 C 212.675 88.367, 213.340 93.675, 214 100 C 214.659 106.325, 215.659 112.063, 216.222 112.750 C 216.784 113.438, 219.226 114, 221.647 114 C 226.976 114, 226.846 114.266, 230.118 96.751 C 231.428 89.739, 232.755 84.001, 233.066 84.001 C 233.378 84, 234.196 90.636, 234.885 98.748 C 235.794 109.439, 236.575 113.978, 237.724 115.248 C 239.628 117.351, 247.715 117.660, 250.356 115.729 C 252.061 114.482, 257.434 96.100, 256.396 95.062 C 255.536 94.202, 254.459 96.717, 252.571 103.995 C 251.572 107.848, 250.443 111, 250.063 111 C 249.683 111, 248.119 105.487, 246.588 98.750 C 245.057 92.013, 242.908 82.563, 241.813 77.750 L 239.821 69 236.386 69 C 233.739 69, 232.758 69.516, 232.110 71.250 M 122.667 70.667 C 121.412 71.921, 121.998 73.215, 123.552 72.618 C 124.442 72.277, 124.843 72.445, 124.493 73.011 C 124.147 73.570, 125.066 74, 126.608 74 C 128.107 74, 129.019 73.686, 128.635 73.302 C 128.251 72.918, 128.964 72.034, 130.219 71.337 C 132.329 70.166, 132.157 70.068, 127.917 70.035 C 125.396 70.016, 123.033 70.300, 122.667 70.667 M 399.961 72.750 C 399.615 79.377, 400.302 112.412, 400.839 114.963 C 401.638 118.766, 404.461 120.163, 409 119.002 C 411.388 118.392, 411.527 117.939, 412.093 108.932 C 412.657 99.951, 414.864 92, 416.792 92 C 417.284 92, 418.094 97.063, 418.593 103.250 L 419.500 114.500 423.195 114.807 C 427.511 115.166, 428.429 113.881, 431.889 102.645 C 434.315 94.765, 434.277 95, 433.125 95 C 432.644 95, 431.228 98.181, 429.978 102.070 C 427.535 109.666, 426.043 109.790, 426.015 102.399 C 425.987 94.892, 422.964 88.747, 418.759 87.647 C 417.228 87.247, 415.766 88.029, 413.445 90.490 L 410.243 93.885 409.632 90.192 C 409.297 88.162, 409.017 84.842, 409.011 82.815 C 408.998 78.612, 407.436 73.898, 405.687 72.786 C 404.146 71.805, 400.011 71.780, 399.961 72.750 M 27.882 74.750 C 27.816 75.162, 27.814 75.830, 27.876 76.232 C 27.990 76.979, 26.413 77.416, 19.752 78.487 C 13.726 79.456, 12.542 82.861, 13.500 96.468 C 13.927 102.536, 14.305 109.171, 14.341 111.214 C 14.415 115.526, 14.887 115.415, 16.099 110.801 L 16.965 107.500 16.568 111 C 16.349 112.925, 15.981 115.175, 15.749 116 C 15.517 116.825, 15.517 117.162, 15.747 116.750 C 15.978 116.338, 16.606 116, 17.142 116 C 17.679 116, 17.850 116.434, 17.523 116.964 C 17.195 117.493, 17.956 118.951, 19.214 120.202 C 22.570 123.543, 32.081 138, 30.922 138 C 29.266 138, 31.445 141.124, 37.025 146.750 C 41.417 151.179, 42.801 151.998, 45.866 151.985 C 48.580 151.973, 49.120 151.724, 48 151 C 47.099 150.418, 46.975 150.025, 47.691 150.015 C 48.346 150.007, 49.160 150.450, 49.500 151 C 49.840 151.550, 50.597 152, 51.181 152 C 51.811 152, 51.685 151.310, 50.872 150.309 C 49.985 149.215, 50.560 149.392, 52.500 150.809 C 55.547 153.035, 62 155.369, 62 154.245 C 62 153.907, 58.007 149.776, 53.126 145.065 C 44.013 136.269, 39.574 130.759, 40.696 129.637 C 41.047 129.287, 40.591 129, 39.684 129 C 38.694 129, 36.981 126.899, 35.403 123.750 C 33.956 120.862, 32.233 117.825, 31.574 117 C 29.946 114.963, 27.315 108.447, 25.953 103.078 C 25.224 100.206, 24.553 99.104, 24.040 99.935 C 23.452 100.887, 23.066 100.916, 22.531 100.050 C 21.550 98.463, 22.821 93.771, 24.029 94.518 C 24.563 94.848, 25 94.191, 25 93.059 C 25 91.927, 24.550 91, 24 91 C 22.668 91, 22.728 86.078, 24.109 82.117 C 24.970 79.646, 25.641 79.069, 27.109 79.535 C 28.384 79.939, 29 79.651, 29 78.649 C 29 77.832, 29.273 76.452, 29.607 75.582 C 29.941 74.712, 29.716 74, 29.107 74 C 28.498 74, 27.947 74.338, 27.882 74.750 M 261.494 77.009 C 260.570 78.505, 261.935 82, 263.445 82 C 265.364 82, 267.315 79.263, 266.643 77.513 C 265.990 75.810, 262.449 75.464, 261.494 77.009 M 287 84.900 C 282.570 85.491, 282.481 85.577, 281.279 90.446 C 280.608 93.166, 280.202 95.535, 280.377 95.711 C 280.553 95.886, 282.699 94.909, 285.148 93.541 C 290.804 90.379, 298 87.820, 298 88.970 C 298 89.455, 294.400 94.588, 290 100.378 C 285.600 106.168, 282 111.339, 282 111.869 C 282 114.004, 286.183 113.987, 296.500 111.810 C 299.250 111.230, 302.867 109.933, 304.538 108.927 C 308.236 106.702, 312.025 100.260, 311.929 96.364 C 311.861 93.602, 311.795 93.642, 310.062 97.500 C 309.074 99.700, 307.364 102.304, 306.264 103.286 C 304.242 105.091, 292.511 107.845, 291.434 106.768 C 291.114 106.447, 293.810 101.792, 297.426 96.422 C 301.042 91.052, 304 86.060, 304 85.329 C 304 83.912, 295.938 83.709, 287 84.900 M 379.655 85.829 C 377.229 88.509, 377.612 94.601, 380.659 101.777 L 383.323 108.054 380.786 110.777 C 375.796 116.134, 376.692 120, 382.924 120 C 388.829 120, 391.500 117.292, 391.500 111.303 C 391.500 107.281, 392.067 105.742, 394.750 102.487 C 396.538 100.319, 397.974 97.634, 397.941 96.522 C 397.884 94.552, 397.852 94.549, 396.691 96.414 C 396.036 97.467, 394.327 99.686, 392.892 101.347 L 390.285 104.365 388.155 97.933 C 386.703 93.547, 386.222 90.307, 386.643 87.750 C 387.242 84.118, 387.168 84, 384.286 84 C 382.649 84, 380.565 84.823, 379.655 85.829 M 334.667 86.667 C 334.300 87.033, 334 87.910, 334 88.614 C 334 91.631, 327.683 107.182, 326.989 105.876 C 326.587 105.119, 325.745 100.962, 325.118 96.637 C 324.491 92.313, 323.732 88.375, 323.430 87.887 C 323.129 87.399, 321.577 87, 319.981 87 C 317.442 87, 316.924 87.522, 315.828 91.179 C 314.851 94.440, 314.843 95.448, 315.788 95.763 C 316.599 96.033, 317 98.748, 317 103.976 C 317 112.395, 317.402 113.016, 322.832 112.985 C 326.597 112.963, 327.350 112.258, 330.822 105.500 L 333.904 99.500 334.052 106 C 334.282 116.154, 334.885 117.448, 339.540 117.794 C 341.718 117.956, 344.310 117.496, 345.301 116.771 C 347.010 115.520, 352 100.645, 352 96.801 C 352 92.593, 350.237 95.546, 348.598 102.500 C 347.625 106.625, 346.516 110, 346.133 110 C 345.750 110, 344.589 105.233, 343.554 99.408 C 342.519 93.582, 341.039 88.182, 340.265 87.408 C 338.786 85.929, 335.799 85.534, 334.667 86.667 M 437.788 87.750 C 436.897 88.774, 435.997 92.539, 435.619 96.824 C 435.087 102.845, 435.314 104.921, 436.892 108.489 C 440.995 117.765, 449.353 116.775, 451.554 106.753 C 451.935 105.018, 453.541 102.305, 455.123 100.723 C 456.706 99.141, 458 97.206, 458 96.423 C 458 94.070, 456.614 94.818, 454.604 98.256 L 452.709 101.500 451.401 96.500 C 449.218 88.150, 441.663 83.294, 437.788 87.750 M 463.395 86.978 C 460.999 87.946, 459.277 94.935, 461.149 96.092 C 461.888 96.549, 462.120 101.878, 461.870 112.633 L 461.500 128.500 466 128.500 L 470.500 128.500 470.792 121.355 C 471.059 114.811, 471.249 114.252, 473.049 114.723 C 475.826 115.449, 480.615 113.236, 482.504 110.354 C 484.379 107.492, 485.542 99.297, 484.604 95.558 C 483.021 89.251, 476.810 87.099, 472.532 91.377 L 470.155 93.754 469.497 91.133 C 468.807 88.384, 467.193 85.956, 466.128 86.063 C 465.782 86.098, 464.553 86.510, 463.395 86.978 M 259.957 91.158 C 259.127 94.242, 259.112 95.537, 259.903 95.801 C 260.600 96.033, 261 99.746, 261 105.976 C 261 116.422, 261.281 117, 266.359 117 C 270.631 117, 272.870 114.215, 275.481 105.655 C 278.174 96.828, 278.467 95, 277.193 95 C 276.750 95, 275.456 98.487, 274.319 102.750 C 273.182 107.013, 272.007 109.825, 271.708 109 C 271.409 108.175, 270.340 103, 269.332 97.500 L 267.500 87.500 264.305 87.191 C 261.307 86.901, 261.038 87.146, 259.957 91.158 M 51.547 89.924 C 51.233 90.433, 51.769 91.072, 52.738 91.346 C 53.707 91.619, 53.150 91.766, 51.500 91.671 C 49.433 91.553, 48.589 91.924, 48.787 92.862 C 48.946 93.612, 48.271 94.835, 47.287 95.581 C 45.167 97.189, 46.315 97.437, 49.066 95.965 C 51.466 94.680, 51.751 96.480, 49.360 97.819 C 48.457 98.324, 48.008 99.204, 48.361 99.774 C 49.203 101.137, 53.194 100.078, 52.702 98.623 C 52.493 98.005, 52.866 96.150, 53.531 94.500 C 54.764 91.441, 54.518 89, 52.976 89 C 52.504 89, 51.861 89.416, 51.547 89.924 M 439.667 89.667 C 438.488 90.846, 438.956 91.954, 440.399 91.400 C 442.380 90.640, 443.436 92.843, 443.129 97.093 C 442.892 100.381, 443.144 100.796, 445.683 101.294 C 449.854 102.112, 450.543 100.711, 448.546 95.481 C 447.381 92.430, 445.952 90.552, 444.327 89.934 C 441.409 88.825, 440.557 88.776, 439.667 89.667 M 78.250 92.341 C 73.705 93.456, 72.539 95.004, 76.250 94.994 C 79.703 94.986, 86 93.022, 86 91.953 C 86 90.825, 84.027 90.924, 78.250 92.341 M 67.500 95.464 C 65.850 96.219, 65.175 96.854, 66 96.874 C 66.825 96.894, 68.850 96.292, 70.500 95.536 C 72.150 94.781, 72.825 94.146, 72 94.126 C 71.175 94.106, 69.150 94.708, 67.500 95.464 M 471.872 95.653 C 471.015 96.686, 470.500 99.781, 470.500 103.903 C 470.500 109.982, 470.677 110.525, 472.748 110.819 C 474.410 111.055, 475.258 110.451, 475.998 108.504 C 477.962 103.341, 476.731 94, 474.087 94 C 473.624 94, 472.627 94.744, 471.872 95.653 M 96 103.366 C 91.875 103.864, 86.588 104.310, 84.250 104.359 C 81.912 104.407, 80 104.723, 80 105.060 C 80 105.396, 78.088 105.747, 75.750 105.838 C 65.624 106.234, 56.910 110.578, 54.455 116.455 C 52.691 120.675, 54.357 129.019, 57.107 129.738 C 58.148 130.010, 59 130.657, 59 131.176 C 59 131.694, 58.492 131.804, 57.870 131.420 C 57.158 130.980, 56.973 131.235, 57.370 132.111 C 57.716 132.875, 58.276 134.287, 58.616 135.250 C 58.955 136.213, 59.856 137, 60.617 137 C 62.141 137, 62.409 135.919, 61.250 134.450 C 60.838 133.928, 60.758 130.350, 61.073 126.500 C 61.389 122.650, 61.771 120.400, 61.923 121.500 C 62.165 123.249, 62.300 123.187, 63 121 C 64.095 117.581, 64.095 114.952, 63 117.500 C 61.441 121.128, 61.966 117.125, 63.578 113.097 C 64.445 110.929, 65.801 108.907, 66.589 108.604 C 67.804 108.138, 67.792 108.501, 66.512 110.977 C 64.760 114.365, 64.608 115.361, 65.970 114.519 C 66.503 114.189, 66.278 115.794, 65.470 118.085 C 63.671 123.184, 63.604 126.174, 65.250 127.947 C 66.262 129.037, 66.230 129.139, 65.080 128.483 C 64.011 127.872, 63.826 128.103, 64.330 129.418 C 64.699 130.378, 65 131.564, 65 132.053 C 65 132.542, 66.463 133.365, 68.250 133.881 C 71.470 134.811, 71.474 134.820, 68.715 134.910 C 66.248 134.990, 66.052 135.229, 67 137 C 67.589 138.100, 68.681 139, 69.428 139 C 70.175 139, 71.045 139.675, 71.362 140.500 C 71.678 141.325, 73.050 142, 74.410 142 C 75.769 142, 77.165 142.457, 77.510 143.016 C 77.856 143.575, 78.557 143.774, 79.069 143.457 C 79.581 143.141, 80 143.449, 80 144.141 C 80 145.120, 80.267 145.133, 81.200 144.200 C 81.860 143.540, 83.773 142.955, 85.450 142.900 C 88.426 142.803, 88.439 142.781, 86 141.989 L 83.500 141.178 85.750 140.472 C 89.283 139.364, 88.385 138, 84.122 138 C 81.896 138, 79.715 137.361, 79 136.500 C 78.315 135.675, 77.060 135, 76.211 135 C 75.362 135, 74.989 134.678, 75.382 134.285 C 75.775 133.891, 79.460 133.483, 83.569 133.377 C 90.890 133.189, 94 134.307, 94 137.128 C 94 138.728, 102.953 142.213, 108.257 142.678 C 114.508 143.226, 124.207 140.103, 129.304 135.901 L 133.041 132.820 130.613 130.910 C 129.277 129.860, 127.693 129, 127.092 129 C 126.492 129, 126 128.581, 126 128.068 C 126 126.800, 122.294 127.397, 117.705 129.404 C 112.334 131.754, 102.105 134.254, 100.455 133.621 C 99.690 133.328, 98.798 133.518, 98.473 134.044 C 97.548 135.541, 94 135.164, 93.362 133.500 C 93.042 132.666, 91.556 132, 90.015 132 C 86.627 132, 84.612 129.798, 85.485 127.048 C 86.217 124.740, 87.544 124.379, 88.417 126.250 C 88.871 127.223, 89.127 127.230, 89.573 126.282 C 89.888 125.612, 91.575 124.848, 93.323 124.586 C 102.020 123.278, 104.009 123.176, 103.459 124.067 C 103.090 124.664, 103.729 124.666, 105.186 124.071 C 106.459 123.552, 109.172 122.856, 111.215 122.525 C 115.614 121.812, 117.253 120, 113.499 120 C 111.151 120, 110.929 119.690, 111.353 117 C 111.859 113.789, 111.165 113.240, 109.141 115.250 C 108.131 116.252, 108.008 116.167, 108.520 114.823 C 109.036 113.467, 108.712 113.259, 106.829 113.735 C 105.548 114.059, 104.243 114.710, 103.930 115.181 C 103.616 115.651, 101.962 116.437, 100.255 116.927 C 97.449 117.732, 97.188 117.620, 97.544 115.773 C 97.760 114.649, 98.064 113.649, 98.219 113.551 C 98.730 113.228, 110.460 108.277, 112.500 107.524 C 114.477 106.794, 114.478 106.777, 112.536 106.055 C 111 105.483, 111.477 105.179, 114.729 104.659 C 117.015 104.294, 119.182 103.514, 119.546 102.926 C 120.310 101.690, 107.995 101.921, 96 103.366 M 444 103.958 C 444 107.704, 448.170 109.605, 449.393 106.418 C 450.385 103.833, 450.138 103.510, 446.998 103.290 C 445.349 103.175, 444 103.476, 444 103.958 M 381.750 112.712 C 379.591 115.112, 379.472 118, 381.531 118 C 383.358 118, 384.282 115.970, 383.829 112.956 C 383.504 110.794, 383.477 110.791, 381.750 112.712 M 82.052 116.597 C 79.055 117.299, 76.173 117.607, 75.647 117.282 C 75.121 116.957, 75.012 117.211, 75.405 117.845 C 75.797 118.480, 77.018 119, 78.118 119 C 79.218 119, 79.859 119.419, 79.543 119.931 C 78.602 121.453, 80.967 122.272, 82.538 120.968 C 83.336 120.306, 85.094 119.976, 86.444 120.234 C 89.286 120.777, 90.821 118.320, 88.787 116.483 C 87.808 115.600, 86.195 115.627, 82.052 116.597 M 170.340 122.266 C 170.232 124.993, 170.474 125.863, 171.075 124.913 C 171.832 123.717, 171.976 123.730, 172.015 125 C 172.056 126.333, 172.154 126.333, 172.895 125 C 173.355 124.175, 174.019 122.150, 174.373 120.500 L 175.016 117.500 173.544 120 C 172.462 121.836, 172.061 122.051, 172.035 120.809 C 171.959 117.176, 170.491 118.438, 170.340 122.266 M 169.459 135.067 C 169.096 135.653, 169.054 136.387, 169.365 136.698 C 169.675 137.009, 169.440 138.216, 168.842 139.381 C 168.002 141.019, 168.027 141.245, 168.952 140.376 C 169.610 139.757, 170.278 138.070, 170.437 136.626 C 170.748 133.793, 170.495 133.390, 169.459 135.067 M 163.480 143.968 C 163.801 144.487, 162.906 145.671, 161.491 146.598 C 158.009 148.880, 156.459 151.867, 157.985 153.357 C 158.869 154.220, 159.989 153.521, 162.563 150.500 C 166.336 146.071, 166.764 144.507, 164.448 143.618 C 163.594 143.291, 163.159 143.448, 163.480 143.968 M 42.800 150.200 C 43.733 151.133, 44.267 151.133, 45.200 150.200 C 46.133 149.267, 45.867 149, 44 149 C 42.133 149, 41.867 149.267, 42.800 150.200 M 129.730 150.805 C 130.596 153.158, 132.029 153.967, 135.357 153.985 C 137.554 153.996, 138.074 153.635, 137.607 152.418 C 137.273 151.548, 137 150.519, 137 150.131 C 137 149.743, 135.224 149.354, 133.053 149.268 C 129.729 149.135, 129.204 149.378, 129.730 150.805 M 149.295 158.887 C 146.251 161.642, 145.393 162.993, 146.185 163.785 C 146.978 164.578, 146.142 164.808, 143.155 164.621 C 140.886 164.479, 138.759 164.093, 138.429 163.763 C 138.099 163.432, 135.392 163.414, 132.414 163.721 C 127.715 164.206, 127 164.049, 127 162.533 C 127 161.346, 127.510 160.982, 128.593 161.397 C 131.941 162.682, 135.548 163.196, 134.104 162.182 C 133.337 161.643, 132.982 160.488, 133.317 159.616 C 133.999 157.838, 131.347 156, 128.100 156 C 125.633 156, 119 159.051, 119 160.185 C 119 160.633, 117.650 161, 116 161 C 114.206 161, 113.101 160.521, 113.250 159.809 C 113.558 158.342, 110.633 157.624, 107.525 158.404 C 105.335 158.954, 105.267 159.217, 106.269 163.243 C 106.852 165.584, 107.818 167.831, 108.415 168.235 C 109.020 168.644, 108.394 168.990, 107 169.016 L 104.500 169.063 107.500 171.556 C 109.150 172.928, 111.047 174.492, 111.716 175.032 C 113.815 176.729, 111.939 178.986, 107.891 179.633 C 105.134 180.074, 104 180.753, 104 181.961 C 104 184.595, 104.658 184.780, 110.154 183.693 C 113.749 182.982, 115.414 182.134, 115.752 180.841 C 116.290 178.784, 118.044 178.444, 119.680 180.080 C 120.863 181.263, 131 177.500, 131 175.877 C 131 175.395, 131.812 175, 132.804 175 C 134.743 175, 141.708 170.846, 146.359 166.916 C 156.534 158.317, 157.042 157.755, 155.892 156.370 C 154.323 154.479, 154.053 154.581, 149.295 158.887 M 44.310 168.875 C 43.268 170.543, 43.693 171.059, 48.065 173.439 C 52.859 176.048, 55.008 176.126, 54.992 173.691 C 54.986 172.762, 50.224 169.353, 45.992 167.247 C 45.713 167.108, 44.956 167.841, 44.310 168.875 M 58 176.802 C 58 178.047, 59.470 179.132, 62.750 180.307 C 68.612 182.408, 68.773 182.407, 69.201 180.250 C 69.456 178.967, 68.341 178.033, 65.024 176.751 C 59.311 174.542, 58 174.551, 58 176.802 M 73 181.345 C 73 183.422, 73.596 183.810, 77.640 184.364 C 84.435 185.295, 85 185.194, 85 183.045 C 85 181.560, 84.099 180.946, 81.250 180.488 C 79.188 180.156, 76.487 179.677, 75.250 179.423 C 73.417 179.047, 73 179.404, 73 181.345 M 88.667 181.667 C 88.300 182.033, 88 182.933, 88 183.667 C 88 184.630, 89.667 185, 94 185 C 99.333 185, 100 184.778, 100 183 C 100 181.250, 99.333 181, 94.667 181 C 91.733 181, 89.033 181.300, 88.667 181.667" stroke="none" fill="#6199b9" fill-rule="evenodd"/><path d="M -0 97.502 L -0 195.004 250.250 194.752 L 500.500 194.500 500.755 97.250 L 501.010 0 250.505 0 L 0 0 -0 97.502 M 0.481 98 C 0.481 151.625, 0.602 173.563, 0.750 146.750 C 0.898 119.937, 0.898 76.062, 0.750 49.250 C 0.602 22.437, 0.481 44.375, 0.481 98 M 80.736 10.598 C 80.407 10.927, 80.380 11.827, 80.676 12.598 C 81.085 13.663, 83.471 14, 90.607 14 C 99.333 14, 100 13.858, 100 12 C 100 10.143, 99.333 10, 90.667 10 C 85.533 10, 81.064 10.269, 80.736 10.598 M 104.336 11.567 C 104.054 12.303, 104.082 13.324, 104.399 13.837 C 105.316 15.320, 114.083 16.317, 115.321 15.079 C 116.954 13.446, 115.078 12.141, 109.633 11.124 C 105.925 10.431, 104.734 10.531, 104.336 11.567 M 69.580 12.336 C 65.480 13.573, 64.516 14.687, 65.797 16.705 C 67.076 18.719, 77 15.370, 77 12.925 C 77 10.719, 75.370 10.590, 69.580 12.336 M 119.667 14.667 C 118.077 16.256, 119.320 17.808, 123.897 19.952 C 126.590 21.213, 129.290 21.939, 129.897 21.564 C 132.207 20.136, 130.823 18.170, 126.065 16.123 C 120.517 13.737, 120.582 13.751, 119.667 14.667 M 55.213 17.618 C 50.531 19.722, 50.045 20.216, 50.967 21.939 C 51.995 23.860, 52.067 23.858, 56.754 21.825 C 62.809 19.198, 63.276 18.730, 61.754 16.818 C 60.625 15.400, 59.973 15.480, 55.213 17.618 M 133.483 22.053 C 133.117 23.207, 132.971 24.248, 133.159 24.367 C 133.346 24.486, 135.467 25.844, 137.870 27.385 C 141.858 29.942, 142.379 30.049, 143.825 28.604 C 145.618 26.810, 144.945 26.074, 137.824 22.039 L 134.149 19.956 133.483 22.053 M 41.631 25.621 C 37.332 28.774, 36.936 29.365, 38.244 30.672 C 39.551 31.980, 40.261 31.775, 44.313 28.919 C 48.150 26.214, 48.740 25.383, 47.916 23.842 C 47.373 22.829, 46.833 22.011, 46.715 22.025 C 46.597 22.038, 44.309 23.657, 41.631 25.621 M 146.433 31.109 C 146.055 31.721, 147.570 34.041, 149.812 36.283 C 153.327 39.798, 154.094 40.167, 155.484 39.013 C 156.926 37.816, 156.706 37.283, 153.343 33.839 C 149.496 29.899, 147.635 29.164, 146.433 31.109 M 29.703 35.792 C 27.666 37.878, 26 40.080, 26 40.685 C 26 42.160, 28.782 43.162, 29.527 41.956 C 29.852 41.430, 31.104 40.964, 32.309 40.921 C 33.524 40.877, 33.910 40.607, 33.177 40.313 C 32.188 39.918, 32.410 39.193, 34.053 37.443 C 36.095 35.270, 36.204 32, 34.234 32 C 33.779 32, 31.740 33.706, 29.703 35.792 M 37 42.015 C 38.251 42.837, 38.127 43.102, 36.250 43.617 C 35.013 43.956, 34 44.581, 34 45.005 C 34 45.430, 32.350 46.087, 30.333 46.465 C 27.524 46.992, 26.459 46.784, 25.783 45.577 C 24.282 42.894, 22.361 43.809, 19.158 48.733 C 16.445 52.904, 16.272 53.573, 17.701 54.373 C 18.929 55.060, 19.952 54.511, 21.911 52.113 C 23.738 49.878, 26.074 48.532, 29.851 47.537 C 36.830 45.699, 42.193 40.972, 37.250 41.015 C 35.752 41.028, 35.716 41.172, 37 42.015 M 157.369 42.480 C 156.779 44.019, 162.435 52, 164.115 52 C 166.461 52, 165.944 48.717, 163.015 45.020 C 159.611 40.721, 158.275 40.120, 157.369 42.480 M 44.759 45.187 C 45.264 47.118, 46.163 47.331, 49.750 46.370 C 53.695 45.312, 52.487 42.890, 48.143 43.147 C 44.964 43.334, 44.368 43.693, 44.759 45.187 M 31.435 57.515 C 27.621 59.429, 23.038 61.887, 21.250 62.977 C 19.462 64.067, 18 64.688, 18 64.357 C 18 64.026, 17.325 64.315, 16.500 65 C 14.574 66.599, 14.601 65.672, 16.594 61.818 C 17.912 59.270, 17.955 58.587, 16.844 57.883 C 16.105 57.414, 15.184 57.024, 14.797 57.015 C 13.787 56.993, 9.859 66.191, 10.342 67.448 C 10.564 68.026, 10.690 68.768, 10.623 69.096 C 10.555 69.424, 11.141 70.465, 11.925 71.409 C 13.223 72.973, 13.117 73.067, 10.738 72.470 C 8.341 71.869, 8.035 72.158, 6.998 76.006 C 6.378 78.311, 5.964 81.390, 6.078 82.848 C 6.193 84.307, 5.960 86.259, 5.561 87.187 C 5.161 88.115, 4.984 94.482, 5.167 101.335 C 5.453 112.022, 5.779 114.104, 7.460 115.959 C 8.906 117.555, 9.102 118.319, 8.207 118.872 C 7.274 119.449, 7.379 120.767, 8.659 124.561 C 9.575 127.278, 10.880 130.400, 11.558 131.500 C 12.237 132.600, 13.126 134.625, 13.535 136 C 15.041 141.070, 23.526 152.717, 31.200 160.250 C 35.542 164.512, 39.493 168, 39.980 168 C 40.467 168, 41.149 167.105, 41.496 166.011 C 41.936 164.627, 41.354 163.305, 39.580 161.662 C 36.906 159.183, 37.042 157.706, 39.848 158.756 C 41.281 159.292, 41.319 159.152, 40.137 157.698 C 39.387 156.776, 38.305 156.312, 37.732 156.666 C 37.160 157.019, 36.971 156.855, 37.314 156.301 C 37.657 155.746, 35.894 153.160, 33.397 150.554 C 30.901 147.948, 27.335 143.437, 25.475 140.528 C 23.422 137.320, 21.141 135.001, 19.675 134.633 C 17.987 134.210, 16.650 132.590, 15.243 129.263 C 11.973 121.531, 11.666 120, 13.381 120 C 14.568 120, 14.717 119.405, 14.067 117.250 C 10.960 106.937, 9.855 98.585, 10.529 90.499 C 10.917 85.839, 11.601 82.253, 12.048 82.530 C 13.805 83.616, 14.094 80.761, 12.415 78.906 C 10.745 77.061, 10.739 76.832, 12.317 75.255 C 13.243 74.329, 14 74.073, 14 74.686 C 14 76.655, 21.311 76.001, 22.783 73.900 C 23.515 72.855, 24.763 72, 25.557 72 C 26.351 72, 27.032 71.438, 27.070 70.750 C 27.109 70.063, 27.468 70.331, 27.867 71.347 C 28.564 73.118, 28.654 73.120, 30.047 71.405 C 30.935 70.312, 31.014 69.908, 30.250 70.367 C 28.306 71.535, 28.780 70.010, 30.936 68.160 C 32.929 66.451, 39.389 55.055, 38.735 54.402 C 38.534 54.200, 35.249 55.601, 31.435 57.515 M 46.500 54.945 C 45.400 55.388, 44.163 55.554, 43.750 55.316 C 43.337 55.077, 43 55.385, 43 56 C 43 56.615, 42.550 56.840, 42 56.500 C 41.092 55.939, 40.619 57.500, 40.725 60.711 C 40.747 61.377, 40.289 61.827, 39.708 61.711 C 38.394 61.448, 33.544 71.279, 32.659 76 C 32.198 78.457, 32.296 79.053, 32.986 78 C 33.527 77.175, 33.976 75.487, 33.985 74.250 C 33.993 73.013, 34.450 72, 35 72 C 35.550 72, 36.003 71.213, 36.007 70.250 C 36.010 69.287, 36.907 67.150, 38 65.500 C 40.418 61.849, 40.558 63.257, 38.362 69.124 C 36.238 74.797, 35.079 102.598, 36.553 112.500 L 37.149 116.500 35.081 113.500 C 32.378 109.578, 32.392 111.855, 35.099 116.443 C 36.389 118.630, 36.747 120, 36.027 120 C 34.688 120, 36.838 122.348, 41.415 125.884 C 43.112 127.195, 43.712 127.997, 42.750 127.665 C 41.788 127.334, 41 127.303, 41 127.597 C 41 129.761, 47.484 138, 49.187 138 C 49.634 138, 50 137.073, 50 135.941 C 50 134.801, 50.454 134.162, 51.016 134.510 C 51.575 134.856, 51.833 135.462, 51.588 135.857 C 51.344 136.252, 52.307 136.672, 53.729 136.790 C 56.295 137.002, 56.300 136.989, 54.407 134.897 C 53.358 133.738, 52.698 132.725, 52.940 132.645 C 53.181 132.565, 52.858 131.600, 52.220 130.500 C 51.389 129.066, 51.044 128.925, 51 130 C 50.952 131.176, 50.717 131.118, 49.908 129.729 C 49.341 128.755, 48.567 128.149, 48.189 128.383 C 47.455 128.837, 47.009 126.084, 46.724 119.331 C 46.626 117.010, 46.129 115.420, 45.604 115.745 C 45.065 116.078, 44.947 115.580, 45.330 114.582 C 45.699 113.622, 46 112.622, 46 112.359 C 46 112.097, 46.526 112.207, 47.170 112.605 C 47.957 113.091, 48.131 112.783, 47.701 111.664 C 47.350 110.749, 47.390 110, 47.791 110 C 48.191 110, 49.110 109.053, 49.833 107.895 C 50.922 106.152, 50.920 105.920, 49.824 106.542 C 48.042 107.554, 51.870 103.893, 55 101.592 C 56.602 100.414, 56.842 99.978, 55.666 100.378 C 54.474 100.783, 53.974 100.578, 54.237 99.790 C 54.459 99.123, 57.669 97.045, 61.369 95.172 C 68.174 91.727, 69.659 89.877, 64.051 91.832 C 60.117 93.204, 60.138 92.497, 64.093 90.452 C 65.794 89.572, 66.944 88.611, 66.648 88.315 C 65.724 87.390, 71.707 82.980, 73.651 83.153 C 77.576 83.501, 78.568 82.949, 78.788 80.294 C 78.911 78.806, 79.459 77.141, 80.006 76.594 C 81.388 75.212, 81.285 71.706, 79.888 72.569 C 79.277 72.947, 78.433 72.700, 78.013 72.021 C 77.535 71.248, 76.405 71.054, 74.993 71.502 C 73.386 72.012, 73.100 72.444, 74.001 73.001 C 74.847 73.524, 74.288 73.997, 72.310 74.432 C 70.433 74.844, 67.399 77.276, 63.995 81.098 C 58.351 87.434, 58.952 87.201, 51.250 86.038 C 50.402 85.910, 51.209 79.989, 52.155 79.405 C 52.928 78.926, 53.045 79.154, 52.507 80.095 C 52.067 80.868, 52.582 80.600, 53.653 79.500 C 56.572 76.502, 58.682 71, 56.912 71 C 56.410 71, 56 70.475, 56 69.833 C 56 69.192, 56.252 68.919, 56.561 69.227 C 56.869 69.536, 58.198 68.711, 59.515 67.394 C 60.832 66.077, 62.830 65, 63.955 65 C 65.140 65, 66 64.345, 66 63.441 C 66 62.584, 65.581 62.141, 65.069 62.457 C 64.557 62.774, 63.844 62.557, 63.485 61.976 C 63.126 61.394, 61.970 61.192, 60.916 61.527 C 59.628 61.935, 59 61.658, 59 60.683 C 59 59.671, 57.318 59.020, 53.457 58.538 C 48.584 57.929, 47.988 57.613, 48.525 55.923 C 48.860 54.865, 48.992 54.032, 48.817 54.070 C 48.643 54.109, 47.600 54.503, 46.500 54.945 M 166.323 54.638 C 164.353 55.442, 169.576 65.580, 171.742 65.155 C 174.347 64.644, 174.346 64.616, 171.550 59.099 C 168.988 54.043, 168.598 53.710, 166.323 54.638 M 151 55.845 C 151 56.533, 152.125 58.138, 153.500 59.412 C 154.875 60.687, 156 62.635, 156 63.742 C 156 64.849, 156.642 66.288, 157.427 66.939 C 158.226 67.602, 159.160 70.985, 159.550 74.619 C 160.597 84.398, 157.157 95.733, 151.319 101.740 C 148.944 104.184, 147 106.760, 147 107.465 C 147 109.043, 143.142 118.003, 141.666 119.851 C 141.073 120.594, 140.490 121.870, 140.370 122.687 C 140.184 123.951, 140.414 123.935, 141.905 122.586 C 145.486 119.346, 144.971 121.183, 140.569 127.352 C 138.076 130.845, 136.274 133.941, 136.564 134.231 C 137.422 135.089, 129.642 140.795, 124.136 143.346 C 121.333 144.644, 119.300 145.967, 119.619 146.286 C 119.937 146.604, 119.141 146.599, 117.849 146.275 C 115.516 145.690, 115.513 145.700, 117.405 147.843 C 118.453 149.029, 118.903 150.007, 118.405 150.015 C 117.907 150.024, 118.175 150.460, 119 150.985 C 120.132 151.706, 120.627 151.425, 121.017 149.839 C 121.446 148.096, 122.468 147.664, 127.017 147.305 C 134.661 146.702, 135.932 144.983, 130.500 142.592 C 129.120 141.985, 132.208 139.914, 133.687 140.455 C 134.341 140.694, 135.999 139.002, 137.373 136.695 C 138.746 134.388, 141.587 130.475, 143.685 128 C 147.423 123.591, 147.621 123.500, 153.500 123.500 C 158.176 123.500, 159.495 123.169, 159.479 122 C 159.467 121.175, 160.783 118.506, 162.402 116.068 C 164.981 112.186, 165.440 111.876, 166.103 113.568 C 166.738 115.190, 166.871 115.060, 166.930 112.758 C 166.992 110.310, 167.325 110.052, 170.041 110.350 C 174.571 110.846, 175.382 112.288, 175.444 119.950 C 175.499 126.846, 175.512 126.878, 176.764 123.264 C 178.796 117.400, 179.273 113.354, 179.724 98.176 C 180.135 84.343, 180.079 83.833, 178.075 83.309 C 176.934 83.011, 176 82.380, 176 81.908 C 176 81.436, 174.891 81.471, 173.535 81.987 C 170.583 83.109, 170.199 82.609, 169.626 76.900 C 169.081 71.468, 167.394 67.565, 163.500 62.727 C 160.359 58.825, 157.257 57.610, 158.452 60.750 C 158.818 61.712, 157.291 60.721, 155.059 58.547 C 152.826 56.373, 151 55.157, 151 55.845 M 75.015 57.679 C 75.007 58.327, 74.293 59.564, 73.429 60.429 C 72.113 61.744, 72.093 62, 73.306 62 C 75.515 62, 77.041 59.679, 75.958 57.966 C 75.404 57.090, 75.024 56.974, 75.015 57.679 M 138 63.833 C 138 64.712, 136.252 65.042, 131.806 65.001 C 130.273 64.987, 128.665 65.736, 128.074 66.738 C 127.281 68.085, 126.840 68.203, 126.202 67.238 C 125.290 65.859, 119 66.606, 119 68.094 C 119 68.558, 118.438 68.764, 117.750 68.552 C 114.099 67.427, 107.908 67.042, 108.485 67.976 C 108.833 68.539, 111.004 69.053, 113.309 69.118 C 117.268 69.230, 117.334 69.279, 114.500 70 C 112.850 70.420, 112.175 70.861, 113 70.981 C 115.887 71.401, 109.465 72.802, 104 72.944 C 96.345 73.143, 90.124 74.479, 88.702 76.228 C 88.041 77.042, 86.383 78.451, 85.018 79.361 C 82.575 80.987, 82.615 81.005, 87.518 80.473 C 90.258 80.175, 93.994 79.159, 95.821 78.216 C 98.967 76.590, 99.209 76.592, 100.431 78.250 C 102.254 80.724, 103.919 80.429, 103.258 77.750 L 102.704 75.500 105.262 77.840 C 106.835 79.279, 109.300 80.277, 111.660 80.432 C 116.079 80.722, 121.186 82.890, 120.410 84.146 C 120.119 84.616, 120.753 85, 121.819 85 C 122.884 85, 124.315 85.675, 125 86.500 C 126.046 87.760, 125.865 88.013, 123.872 88.079 C 121.332 88.163, 121.864 88.464, 126.291 89.442 C 127.826 89.781, 128.854 90.427, 128.576 90.876 C 128.299 91.326, 129.405 92.972, 131.036 94.534 C 134.357 97.716, 134.755 99, 132.421 99 C 131.215 99, 130.985 99.656, 131.449 101.769 C 131.833 103.516, 131.505 105.270, 130.561 106.519 C 128.564 109.161, 128.630 109.732, 131.082 111.044 C 132.794 111.960, 133.858 111.698, 137.082 109.565 C 141.943 106.348, 142.141 107.502, 137.500 112 C 135.575 113.866, 134 115.829, 134 116.363 C 134 116.897, 134.293 117.040, 134.651 116.682 C 135.009 116.324, 135.797 116.668, 136.401 117.446 C 137.006 118.225, 138.385 119.005, 139.468 119.181 C 141.072 119.441, 141.875 118.299, 143.817 113 C 145.985 107.082, 146.150 105.426, 145.661 94.500 C 145.365 87.900, 144.711 81.150, 144.207 79.500 C 143.703 77.850, 143.644 75.600, 144.075 74.500 C 144.721 72.852, 144.872 73.051, 144.930 75.628 C 144.968 77.348, 145.710 80.456, 146.579 82.534 C 147.447 84.611, 148.463 89.954, 148.837 94.406 L 149.516 102.500 152.758 96.090 C 154.541 92.565, 155.980 88.740, 155.956 87.590 C 155.928 86.254, 155.420 86.879, 154.548 89.324 C 152.503 95.060, 152.186 94.783, 152.233 87.302 C 152.287 78.617, 149.720 69.456, 146.792 67.889 C 145.601 67.251, 143.725 65.890, 142.624 64.865 C 140.557 62.939, 138 62.368, 138 63.833 M 172.471 69.047 C 172.115 69.624, 172.358 72.324, 173.011 75.047 C 173.919 78.830, 174.648 80, 176.100 80 C 178.294 80, 178.436 78.619, 176.881 72.443 C 175.820 68.228, 173.894 66.745, 172.471 69.047 M 232.110 71.250 C 231.648 72.487, 229.997 79.241, 228.442 86.257 C 226.886 93.273, 225.317 98.673, 224.954 98.257 C 224.591 97.841, 223.229 92.146, 221.927 85.602 C 219.522 73.511, 218.329 71, 214.988 71 C 212.472 71, 212.231 71.538, 210.436 81.161 C 208.391 92.122, 205.339 102.380, 202.386 108.217 C 199.253 114.411, 199.350 115.190, 203.215 114.813 C 206.251 114.517, 206.554 114.109, 208.637 107.500 C 209.851 103.650, 211.158 97.667, 211.543 94.205 C 211.928 90.742, 212.368 88.042, 212.522 88.205 C 212.675 88.367, 213.340 93.675, 214 100 C 214.659 106.325, 215.659 112.063, 216.222 112.750 C 216.784 113.438, 219.226 114, 221.647 114 C 226.976 114, 226.846 114.266, 230.118 96.751 C 231.428 89.739, 232.755 84.001, 233.066 84.001 C 233.378 84, 234.196 90.636, 234.885 98.748 C 235.794 109.439, 236.575 113.978, 237.724 115.248 C 239.628 117.351, 247.715 117.660, 250.356 115.729 C 252.061 114.482, 257.434 96.100, 256.396 95.062 C 255.536 94.202, 254.459 96.717, 252.571 103.995 C 251.572 107.848, 250.443 111, 250.063 111 C 249.683 111, 248.119 105.487, 246.588 98.750 C 245.057 92.013, 242.908 82.563, 241.813 77.750 L 239.821 69 236.386 69 C 233.739 69, 232.758 69.516, 232.110 71.250 M 122.667 70.667 C 121.412 71.921, 121.998 73.215, 123.552 72.618 C 124.442 72.277, 124.843 72.445, 124.493 73.011 C 124.147 73.570, 125.066 74, 126.608 74 C 128.107 74, 129.019 73.686, 128.635 73.302 C 128.251 72.918, 128.964 72.034, 130.219 71.337 C 132.329 70.166, 132.157 70.068, 127.917 70.035 C 125.396 70.016, 123.033 70.300, 122.667 70.667 M 399.961 72.750 C 399.615 79.377, 400.302 112.412, 400.839 114.963 C 401.638 118.766, 404.461 120.163, 409 119.002 C 411.388 118.392, 411.527 117.939, 412.093 108.932 C 412.657 99.951, 414.864 92, 416.792 92 C 417.284 92, 418.094 97.063, 418.593 103.250 L 419.500 114.500 423.195 114.807 C 427.511 115.166, 428.429 113.881, 431.889 102.645 C 434.315 94.765, 434.277 95, 433.125 95 C 432.644 95, 431.228 98.181, 429.978 102.070 C 427.535 109.666, 426.043 109.790, 426.015 102.399 C 425.987 94.892, 422.964 88.747, 418.759 87.647 C 417.228 87.247, 415.766 88.029, 413.445 90.490 L 410.243 93.885 409.632 90.192 C 409.297 88.162, 409.017 84.842, 409.011 82.815 C 408.998 78.612, 407.436 73.898, 405.687 72.786 C 404.146 71.805, 400.011 71.780, 399.961 72.750 M 27.882 74.750 C 27.816 75.162, 27.814 75.830, 27.876 76.232 C 27.990 76.979, 26.413 77.416, 19.752 78.487 C 13.726 79.456, 12.542 82.861, 13.500 96.468 C 13.927 102.536, 14.305 109.171, 14.341 111.214 C 14.415 115.526, 14.887 115.415, 16.099 110.801 L 16.965 107.500 16.568 111 C 16.349 112.925, 15.981 115.175, 15.749 116 C 15.517 116.825, 15.517 117.162, 15.747 116.750 C 15.978 116.338, 16.606 116, 17.142 116 C 17.679 116, 17.850 116.434, 17.523 116.964 C 17.195 117.493, 17.956 118.951, 19.214 120.202 C 22.570 123.543, 32.081 138, 30.922 138 C 29.266 138, 31.445 141.124, 37.025 146.750 C 41.417 151.179, 42.801 151.998, 45.866 151.985 C 48.580 151.973, 49.120 151.724, 48 151 C 47.099 150.418, 46.975 150.025, 47.691 150.015 C 48.346 150.007, 49.160 150.450, 49.500 151 C 49.840 151.550, 50.597 152, 51.181 152 C 51.811 152, 51.685 151.310, 50.872 150.309 C 49.985 149.215, 50.560 149.392, 52.500 150.809 C 55.547 153.035, 62 155.369, 62 154.245 C 62 153.907, 58.007 149.776, 53.126 145.065 C 44.013 136.269, 39.574 130.759, 40.696 129.637 C 41.047 129.287, 40.591 129, 39.684 129 C 38.694 129, 36.981 126.899, 35.403 123.750 C 33.956 120.862, 32.233 117.825, 31.574 117 C 29.946 114.963, 27.315 108.447, 25.953 103.078 C 25.224 100.206, 24.553 99.104, 24.040 99.935 C 23.452 100.887, 23.066 100.916, 22.531 100.050 C 21.550 98.463, 22.821 93.771, 24.029 94.518 C 24.563 94.848, 25 94.191, 25 93.059 C 25 91.927, 24.550 91, 24 91 C 22.668 91, 22.728 86.078, 24.109 82.117 C 24.970 79.646, 25.641 79.069, 27.109 79.535 C 28.384 79.939, 29 79.651, 29 78.649 C 29 77.832, 29.273 76.452, 29.607 75.582 C 29.941 74.712, 29.716 74, 29.107 74 C 28.498 74, 27.947 74.338, 27.882 74.750 M 261.494 77.009 C 260.570 78.505, 261.935 82, 263.445 82 C 265.364 82, 267.315 79.263, 266.643 77.513 C 265.990 75.810, 262.449 75.464, 261.494 77.009 M 287 84.900 C 282.570 85.491, 282.481 85.577, 281.279 90.446 C 280.608 93.166, 280.202 95.535, 280.377 95.711 C 280.553 95.886, 282.699 94.909, 285.148 93.541 C 290.804 90.379, 298 87.820, 298 88.970 C 298 89.455, 294.400 94.588, 290 100.378 C 285.600 106.168, 282 111.339, 282 111.869 C 282 114.004, 286.183 113.987, 296.500 111.810 C 299.250 111.230, 302.867 109.933, 304.538 108.927 C 308.236 106.702, 312.025 100.260, 311.929 96.364 C 311.861 93.602, 311.795 93.642, 310.062 97.500 C 309.074 99.700, 307.364 102.304, 306.264 103.286 C 304.242 105.091, 292.511 107.845, 291.434 106.768 C 291.114 106.447, 293.810 101.792, 297.426 96.422 C 301.042 91.052, 304 86.060, 304 85.329 C 304 83.912, 295.938 83.709, 287 84.900 M 379.655 85.829 C 377.229 88.509, 377.612 94.601, 380.659 101.777 L 383.323 108.054 380.786 110.777 C 375.796 116.134, 376.692 120, 382.924 120 C 388.829 120, 391.500 117.292, 391.500 111.303 C 391.500 107.281, 392.067 105.742, 394.750 102.487 C 396.538 100.319, 397.974 97.634, 397.941 96.522 C 397.884 94.552, 397.852 94.549, 396.691 96.414 C 396.036 97.467, 394.327 99.686, 392.892 101.347 L 390.285 104.365 388.155 97.933 C 386.703 93.547, 386.222 90.307, 386.643 87.750 C 387.242 84.118, 387.168 84, 384.286 84 C 382.649 84, 380.565 84.823, 379.655 85.829 M 334.667 86.667 C 334.300 87.033, 334 87.910, 334 88.614 C 334 91.631, 327.683 107.182, 326.989 105.876 C 326.587 105.119, 325.745 100.962, 325.118 96.637 C 324.491 92.313, 323.732 88.375, 323.430 87.887 C 323.129 87.399, 321.577 87, 319.981 87 C 317.442 87, 316.924 87.522, 315.828 91.179 C 314.851 94.440, 314.843 95.448, 315.788 95.763 C 316.599 96.033, 317 98.748, 317 103.976 C 317 112.395, 317.402 113.016, 322.832 112.985 C 326.597 112.963, 327.350 112.258, 330.822 105.500 L 333.904 99.500 334.052 106 C 334.282 116.154, 334.885 117.448, 339.540 117.794 C 341.718 117.956, 344.310 117.496, 345.301 116.771 C 347.010 115.520, 352 100.645, 352 96.801 C 352 92.593, 350.237 95.546, 348.598 102.500 C 347.625 106.625, 346.516 110, 346.133 110 C 345.750 110, 344.589 105.233, 343.554 99.408 C 342.519 93.582, 341.039 88.182, 340.265 87.408 C 338.786 85.929, 335.799 85.534, 334.667 86.667 M 437.788 87.750 C 436.897 88.774, 435.997 92.539, 435.619 96.824 C 435.087 102.845, 435.314 104.921, 436.892 108.489 C 440.995 117.765, 449.353 116.775, 451.554 106.753 C 451.935 105.018, 453.541 102.305, 455.123 100.723 C 456.706 99.141, 458 97.206, 458 96.423 C 458 94.070, 456.614 94.818, 454.604 98.256 L 452.709 101.500 451.401 96.500 C 449.218 88.150, 441.663 83.294, 437.788 87.750 M 463.395 86.978 C 460.999 87.946, 459.277 94.935, 461.149 96.092 C 461.888 96.549, 462.120 101.878, 461.870 112.633 L 461.500 128.500 466 128.500 L 470.500 128.500 470.792 121.355 C 471.059 114.811, 471.249 114.252, 473.049 114.723 C 475.826 115.449, 480.615 113.236, 482.504 110.354 C 484.379 107.492, 485.542 99.297, 484.604 95.558 C 483.021 89.251, 476.810 87.099, 472.532 91.377 L 470.155 93.754 469.497 91.133 C 468.807 88.384, 467.193 85.956, 466.128 86.063 C 465.782 86.098, 464.553 86.510, 463.395 86.978 M 259.957 91.158 C 259.127 94.242, 259.112 95.537, 259.903 95.801 C 260.600 96.033, 261 99.746, 261 105.976 C 261 116.422, 261.281 117, 266.359 117 C 270.631 117, 272.870 114.215, 275.481 105.655 C 278.174 96.828, 278.467 95, 277.193 95 C 276.750 95, 275.456 98.487, 274.319 102.750 C 273.182 107.013, 272.007 109.825, 271.708 109 C 271.409 108.175, 270.340 103, 269.332 97.500 L 267.500 87.500 264.305 87.191 C 261.307 86.901, 261.038 87.146, 259.957 91.158 M 51.547 89.924 C 51.233 90.433, 51.769 91.072, 52.738 91.346 C 53.707 91.619, 53.150 91.766, 51.500 91.671 C 49.433 91.553, 48.589 91.924, 48.787 92.862 C 48.946 93.612, 48.271 94.835, 47.287 95.581 C 45.167 97.189, 46.315 97.437, 49.066 95.965 C 51.466 94.680, 51.751 96.480, 49.360 97.819 C 48.457 98.324, 48.008 99.204, 48.361 99.774 C 49.203 101.137, 53.194 100.078, 52.702 98.623 C 52.493 98.005, 52.866 96.150, 53.531 94.500 C 54.764 91.441, 54.518 89, 52.976 89 C 52.504 89, 51.861 89.416, 51.547 89.924 M 439.667 89.667 C 438.488 90.846, 438.956 91.954, 440.399 91.400 C 442.380 90.640, 443.436 92.843, 443.129 97.093 C 442.892 100.381, 443.144 100.796, 445.683 101.294 C 449.854 102.112, 450.543 100.711, 448.546 95.481 C 447.381 92.430, 445.952 90.552, 444.327 89.934 C 441.409 88.825, 440.557 88.776, 439.667 89.667 M 78.250 92.341 C 73.705 93.456, 72.539 95.004, 76.250 94.994 C 79.703 94.986, 86 93.022, 86 91.953 C 86 90.825, 84.027 90.924, 78.250 92.341 M 67.500 95.464 C 65.850 96.219, 65.175 96.854, 66 96.874 C 66.825 96.894, 68.850 96.292, 70.500 95.536 C 72.150 94.781, 72.825 94.146, 72 94.126 C 71.175 94.106, 69.150 94.708, 67.500 95.464 M 471.872 95.653 C 471.015 96.686, 470.500 99.781, 470.500 103.903 C 470.500 109.982, 470.677 110.525, 472.748 110.819 C 474.410 111.055, 475.258 110.451, 475.998 108.504 C 477.962 103.341, 476.731 94, 474.087 94 C 473.624 94, 472.627 94.744, 471.872 95.653 M 96 103.366 C 91.875 103.864, 86.588 104.310, 84.250 104.359 C 81.912 104.407, 80 104.723, 80 105.060 C 80 105.396, 78.088 105.747, 75.750 105.838 C 65.624 106.234, 56.910 110.578, 54.455 116.455 C 52.691 120.675, 54.357 129.019, 57.107 129.738 C 58.148 130.010, 59 130.657, 59 131.176 C 59 131.694, 58.492 131.804, 57.870 131.420 C 57.158 130.980, 56.973 131.235, 57.370 132.111 C 57.716 132.875, 58.276 134.287, 58.616 135.250 C 58.955 136.213, 59.856 137, 60.617 137 C 62.141 137, 62.409 135.919, 61.250 134.450 C 60.838 133.928, 60.758 130.350, 61.073 126.500 C 61.389 122.650, 61.771 120.400, 61.923 121.500 C 62.165 123.249, 62.300 123.187, 63 121 C 64.095 117.581, 64.095 114.952, 63 117.500 C 61.441 121.128, 61.966 117.125, 63.578 113.097 C 64.445 110.929, 65.801 108.907, 66.589 108.604 C 67.804 108.138, 67.792 108.501, 66.512 110.977 C 64.760 114.365, 64.608 115.361, 65.970 114.519 C 66.503 114.189, 66.278 115.794, 65.470 118.085 C 63.671 123.184, 63.604 126.174, 65.250 127.947 C 66.262 129.037, 66.230 129.139, 65.080 128.483 C 64.011 127.872, 63.826 128.103, 64.330 129.418 C 64.699 130.378, 65 131.564, 65 132.053 C 65 132.542, 66.463 133.365, 68.250 133.881 C 71.470 134.811, 71.474 134.820, 68.715 134.910 C 66.248 134.990, 66.052 135.229, 67 137 C 67.589 138.100, 68.681 139, 69.428 139 C 70.175 139, 71.045 139.675, 71.362 140.500 C 71.678 141.325, 73.050 142, 74.410 142 C 75.769 142, 77.165 142.457, 77.510 143.016 C 77.856 143.575, 78.557 143.774, 79.069 143.457 C 79.581 143.141, 80 143.449, 80 144.141 C 80 145.120, 80.267 145.133, 81.200 144.200 C 81.860 143.540, 83.773 142.955, 85.450 142.900 C 88.426 142.803, 88.439 142.781, 86 141.989 L 83.500 141.178 85.750 140.472 C 89.283 139.364, 88.385 138, 84.122 138 C 81.896 138, 79.715 137.361, 79 136.500 C 78.315 135.675, 77.060 135, 76.211 135 C 75.362 135, 74.989 134.678, 75.382 134.285 C 75.775 133.891, 79.460 133.483, 83.569 133.377 C 90.890 133.189, 94 134.307, 94 137.128 C 94 138.728, 102.953 142.213, 108.257 142.678 C 114.508 143.226, 124.207 140.103, 129.304 135.901 L 133.041 132.820 130.613 130.910 C 129.277 129.860, 127.693 129, 127.092 129 C 126.492 129, 126 128.581, 126 128.068 C 126 126.800, 122.294 127.397, 117.705 129.404 C 112.334 131.754, 102.105 134.254, 100.455 133.621 C 99.690 133.328, 98.798 133.518, 98.473 134.044 C 97.548 135.541, 94 135.164, 93.362 133.500 C 93.042 132.666, 91.556 132, 90.015 132 C 86.627 132, 84.612 129.798, 85.485 127.048 C 86.217 124.740, 87.544 124.379, 88.417 126.250 C 88.871 127.223, 89.127 127.230, 89.573 126.282 C 89.888 125.612, 91.575 124.848, 93.323 124.586 C 102.020 123.278, 104.009 123.176, 103.459 124.067 C 103.090 124.664, 103.729 124.666, 105.186 124.071 C 106.459 123.552, 109.172 122.856, 111.215 122.525 C 115.614 121.812, 117.253 120, 113.499 120 C 111.151 120, 110.929 119.690, 111.353 117 C 111.859 113.789, 111.165 113.240, 109.141 115.250 C 108.131 116.252, 108.008 116.167, 108.520 114.823 C 109.036 113.467, 108.712 113.259, 106.829 113.735 C 105.548 114.059, 104.243 114.710, 103.930 115.181 C 103.616 115.651, 101.962 116.437, 100.255 116.927 C 97.449 117.732, 97.188 117.620, 97.544 115.773 C 97.760 114.649, 98.064 113.649, 98.219 113.551 C 98.730 113.228, 110.460 108.277, 112.500 107.524 C 114.477 106.794, 114.478 106.777, 112.536 106.055 C 111 105.483, 111.477 105.179, 114.729 104.659 C 117.015 104.294, 119.182 103.514, 119.546 102.926 C 120.310 101.690, 107.995 101.921, 96 103.366 M 444 103.958 C 444 107.704, 448.170 109.605, 449.393 106.418 C 450.385 103.833, 450.138 103.510, 446.998 103.290 C 445.349 103.175, 444 103.476, 444 103.958 M 381.750 112.712 C 379.591 115.112, 379.472 118, 381.531 118 C 383.358 118, 384.282 115.970, 383.829 112.956 C 383.504 110.794, 383.477 110.791, 381.750 112.712 M 82.052 116.597 C 79.055 117.299, 76.173 117.607, 75.647 117.282 C 75.121 116.957, 75.012 117.211, 75.405 117.845 C 75.797 118.480, 77.018 119, 78.118 119 C 79.218 119, 79.859 119.419, 79.543 119.931 C 78.602 121.453, 80.967 122.272, 82.538 120.968 C 83.336 120.306, 85.094 119.976, 86.444 120.234 C 89.286 120.777, 90.821 118.320, 88.787 116.483 C 87.808 115.600, 86.195 115.627, 82.052 116.597 M 170.340 122.266 C 170.232 124.993, 170.474 125.863, 171.075 124.913 C 171.832 123.717, 171.976 123.730, 172.015 125 C 172.056 126.333, 172.154 126.333, 172.895 125 C 173.355 124.175, 174.019 122.150, 174.373 120.500 L 175.016 117.500 173.544 120 C 172.462 121.836, 172.061 122.051, 172.035 120.809 C 171.959 117.176, 170.491 118.438, 170.340 122.266 M 169.459 135.067 C 169.096 135.653, 169.054 136.387, 169.365 136.698 C 169.675 137.009, 169.440 138.216, 168.842 139.381 C 168.002 141.019, 168.027 141.245, 168.952 140.376 C 169.610 139.757, 170.278 138.070, 170.437 136.626 C 170.748 133.793, 170.495 133.390, 169.459 135.067 M 163.480 143.968 C 163.801 144.487, 162.906 145.671, 161.491 146.598 C 158.009 148.880, 156.459 151.867, 157.985 153.357 C 158.869 154.220, 159.989 153.521, 162.563 150.500 C 166.336 146.071, 166.764 144.507, 164.448 143.618 C 163.594 143.291, 163.159 143.448, 163.480 143.968 M 42.800 150.200 C 43.733 151.133, 44.267 151.133, 45.200 150.200 C 46.133 149.267, 45.867 149, 44 149 C 42.133 149, 41.867 149.267, 42.800 150.200 M 129.730 150.805 C 130.596 153.158, 132.029 153.967, 135.357 153.985 C 137.554 153.996, 138.074 153.635, 137.607 152.418 C 137.273 151.548, 137 150.519, 137 150.131 C 137 149.743, 135.224 149.354, 133.053 149.268 C 129.729 149.135, 129.204 149.378, 129.730 150.805 M 149.295 158.887 C 146.251 161.642, 145.393 162.993, 146.185 163.785 C 146.978 164.578, 146.142 164.808, 143.155 164.621 C 140.886 164.479, 138.759 164.093, 138.429 163.763 C 138.099 163.432, 135.392 163.414, 132.414 163.721 C 127.715 164.206, 127 164.049, 127 162.533 C 127 161.346, 127.510 160.982, 128.593 161.397 C 131.941 162.682, 135.548 163.196, 134.104 162.182 C 133.337 161.643, 132.982 160.488, 133.317 159.616 C 133.999 157.838, 131.347 156, 128.100 156 C 125.633 156, 119 159.051, 119 160.185 C 119 160.633, 117.650 161, 116 161 C 114.206 161, 113.101 160.521, 113.250 159.809 C 113.558 158.342, 110.633 157.624, 107.525 158.404 C 105.335 158.954, 105.267 159.217, 106.269 163.243 C 106.852 165.584, 107.818 167.831, 108.415 168.235 C 109.020 168.644, 108.394 168.990, 107 169.016 L 104.500 169.063 107.500 171.556 C 109.150 172.928, 111.047 174.492, 111.716 175.032 C 113.815 176.729, 111.939 178.986, 107.891 179.633 C 105.134 180.074, 104 180.753, 104 181.961 C 104 184.595, 104.658 184.780, 110.154 183.693 C 113.749 182.982, 115.414 182.134, 115.752 180.841 C 116.290 178.784, 118.044 178.444, 119.680 180.080 C 120.863 181.263, 131 177.500, 131 175.877 C 131 175.395, 131.812 175, 132.804 175 C 134.743 175, 141.708 170.846, 146.359 166.916 C 156.534 158.317, 157.042 157.755, 155.892 156.370 C 154.323 154.479, 154.053 154.581, 149.295 158.887 M 44.310 168.875 C 43.268 170.543, 43.693 171.059, 48.065 173.439 C 52.859 176.048, 55.008 176.126, 54.992 173.691 C 54.986 172.762, 50.224 169.353, 45.992 167.247 C 45.713 167.108, 44.956 167.841, 44.310 168.875 M 58 176.802 C 58 178.047, 59.470 179.132, 62.750 180.307 C 68.612 182.408, 68.773 182.407, 69.201 180.250 C 69.456 178.967, 68.341 178.033, 65.024 176.751 C 59.311 174.542, 58 174.551, 58 176.802 M 73 181.345 C 73 183.422, 73.596 183.810, 77.640 184.364 C 84.435 185.295, 85 185.194, 85 183.045 C 85 181.560, 84.099 180.946, 81.250 180.488 C 79.188 180.156, 76.487 179.677, 75.250 179.423 C 73.417 179.047, 73 179.404, 73 181.345 M 88.667 181.667 C 88.300 182.033, 88 182.933, 88 183.667 C 88 184.630, 89.667 185, 94 185 C 99.333 185, 100 184.778, 100 183 C 100 181.250, 99.333 181, 94.667 181 C 91.733 181, 89.033 181.300, 88.667 181.667" stroke="none" fill="#f8faf2" fill-rule="evenodd"/></svg>