<svg xmlns="http://www.w3.org/2000/svg" width="500" height="500" viewBox="0 0 500 500" version="1.1"><path d="M 80.736 115.598 C 80.407 115.927, 80.380 116.827, 80.676 117.598 C 81.085 118.663, 83.471 119, 90.607 119 C 99.333 119, 100 118.858, 100 117 C 100 115.143, 99.333 115, 90.667 115 C 85.533 115, 81.064 115.269, 80.736 115.598 M 104.336 116.567 C 104.054 117.303, 104.082 118.324, 104.399 118.837 C 105.316 120.320, 114.083 121.317, 115.321 120.079 C 116.954 118.446, 115.078 117.141, 109.633 116.124 C 105.925 115.431, 104.734 115.531, 104.336 116.567 M 69.580 117.336 C 65.480 118.573, 64.516 119.687, 65.797 121.705 C 67.076 123.719, 77 120.370, 77 117.925 C 77 115.719, 75.370 115.590, 69.580 117.336 M 119.667 119.667 C 118.077 121.256, 119.320 122.808, 123.897 124.952 C 126.590 126.213, 129.290 126.939, 129.897 126.564 C 132.207 125.136, 130.823 123.170, 126.065 121.123 C 120.517 118.737, 120.582 118.751, 119.667 119.667 M 55.213 122.618 C 50.531 124.722, 50.045 125.216, 50.967 126.939 C 51.995 128.860, 52.067 128.858, 56.754 126.825 C 62.809 124.198, 63.276 123.730, 61.754 121.818 C 60.625 120.400, 59.973 120.480, 55.213 122.618 M 133.483 127.053 C 133.117 128.207, 132.971 129.248, 133.159 129.367 C 133.346 129.486, 135.467 130.844, 137.870 132.385 C 141.858 134.942, 142.379 135.049, 143.825 133.604 C 145.618 131.810, 144.945 131.074, 137.824 127.039 L 134.149 124.956 133.483 127.053 M 41.631 130.621 C 37.332 133.774, 36.936 134.365, 38.244 135.672 C 39.551 136.980, 40.261 136.775, 44.313 133.919 C 48.150 131.214, 48.740 130.383, 47.916 128.842 C 47.373 127.829, 46.833 127.011, 46.715 127.025 C 46.597 127.038, 44.309 128.657, 41.631 130.621 M 146.433 136.109 C 146.055 136.721, 147.570 139.041, 149.812 141.283 C 153.327 144.798, 154.094 145.167, 155.484 144.013 C 156.926 142.816, 156.706 142.283, 153.343 138.839 C 149.496 134.899, 147.635 134.164, 146.433 136.109 M 29.703 140.792 C 27.666 142.878, 26 145.080, 26 145.685 C 26 147.160, 28.782 148.162, 29.527 146.956 C 29.852 146.430, 31.104 145.964, 32.309 145.921 C 33.524 145.877, 33.910 145.607, 33.177 145.313 C 32.188 144.918, 32.410 144.193, 34.053 142.443 C 36.095 140.270, 36.204 137, 34.234 137 C 33.779 137, 31.740 138.706, 29.703 140.792 M 37 147.015 C 38.251 147.837, 38.127 148.102, 36.250 148.617 C 35.013 148.956, 34 149.581, 34 150.005 C 34 150.430, 32.350 151.087, 30.333 151.465 C 27.524 151.992, 26.459 151.784, 25.783 150.577 C 24.282 147.894, 22.361 148.809, 19.158 153.733 C 16.445 157.904, 16.272 158.573, 17.701 159.373 C 18.929 160.060, 19.952 159.511, 21.911 157.113 C 23.738 154.878, 26.074 153.532, 29.851 152.537 C 36.830 150.699, 42.193 145.972, 37.250 146.015 C 35.752 146.028, 35.716 146.172, 37 147.015 M 157.369 147.480 C 156.779 149.019, 162.435 157, 164.115 157 C 166.461 157, 165.944 153.717, 163.015 150.020 C 159.611 145.721, 158.275 145.120, 157.369 147.480 M 44.759 150.187 C 45.264 152.118, 46.163 152.331, 49.750 151.370 C 53.695 150.312, 52.487 147.890, 48.143 148.147 C 44.964 148.334, 44.368 148.693, 44.759 150.187 M 31.435 162.515 C 27.621 164.429, 23.038 166.887, 21.250 167.977 C 19.462 169.067, 18 169.688, 18 169.357 C 18 169.026, 17.325 169.315, 16.500 170 C 14.574 171.599, 14.601 170.672, 16.594 166.818 C 17.912 164.270, 17.955 163.587, 16.844 162.883 C 16.105 162.414, 15.184 162.024, 14.797 162.015 C 13.787 161.993, 9.859 171.191, 10.342 172.448 C 10.564 173.026, 10.690 173.768, 10.623 174.096 C 10.555 174.424, 11.141 175.465, 11.925 176.409 C 13.223 177.973, 13.117 178.067, 10.738 177.470 C 8.341 176.869, 8.035 177.158, 6.998 181.006 C 6.378 183.311, 5.964 186.390, 6.078 187.848 C 6.193 189.307, 5.960 191.259, 5.561 192.187 C 5.161 193.115, 4.984 199.482, 5.167 206.335 C 5.453 217.022, 5.779 219.104, 7.460 220.959 C 8.906 222.555, 9.102 223.319, 8.207 223.872 C 7.274 224.449, 7.379 225.767, 8.659 229.561 C 9.575 232.278, 10.880 235.400, 11.558 236.500 C 12.237 237.600, 13.126 239.625, 13.535 241 C 15.041 246.070, 23.526 257.717, 31.200 265.250 C 35.542 269.512, 39.493 273, 39.980 273 C 40.467 273, 41.149 272.105, 41.496 271.011 C 41.936 269.627, 41.354 268.305, 39.580 266.662 C 36.906 264.183, 37.042 262.706, 39.848 263.756 C 41.281 264.292, 41.319 264.152, 40.137 262.698 C 39.387 261.776, 38.305 261.312, 37.732 261.666 C 37.160 262.019, 36.971 261.855, 37.314 261.301 C 37.657 260.746, 35.894 258.160, 33.397 255.554 C 30.901 252.948, 27.335 248.437, 25.475 245.528 C 23.422 242.320, 21.141 240.001, 19.675 239.633 C 17.987 239.210, 16.650 237.590, 15.243 234.263 C 11.973 226.531, 11.666 225, 13.381 225 C 14.568 225, 14.717 224.405, 14.067 222.250 C 10.960 211.937, 9.855 203.585, 10.529 195.499 C 10.917 190.839, 11.601 187.253, 12.048 187.530 C 13.805 188.616, 14.094 185.761, 12.415 183.906 C 10.745 182.061, 10.739 181.832, 12.317 180.255 C 13.243 179.329, 14 179.073, 14 179.686 C 14 181.655, 21.311 181.001, 22.783 178.900 C 23.515 177.855, 24.763 177, 25.557 177 C 26.351 177, 27.032 176.438, 27.070 175.750 C 27.109 175.063, 27.468 175.331, 27.867 176.347 C 28.564 178.118, 28.654 178.120, 30.047 176.405 C 30.935 175.312, 31.014 174.908, 30.250 175.367 C 28.306 176.535, 28.780 175.010, 30.936 173.160 C 32.929 171.451, 39.389 160.055, 38.735 159.402 C 38.534 159.200, 35.249 160.601, 31.435 162.515 M 46.500 159.945 C 45.400 160.388, 44.163 160.554, 43.750 160.316 C 43.337 160.077, 43 160.385, 43 161 C 43 161.615, 42.550 161.840, 42 161.500 C 41.092 160.939, 40.619 162.500, 40.725 165.711 C 40.747 166.377, 40.289 166.827, 39.708 166.711 C 38.394 166.448, 33.544 176.279, 32.659 181 C 32.198 183.457, 32.296 184.053, 32.986 183 C 33.527 182.175, 33.976 180.488, 33.985 179.250 C 33.993 178.012, 34.450 177, 35 177 C 35.550 177, 36.003 176.213, 36.007 175.250 C 36.010 174.287, 36.907 172.150, 38 170.500 C 40.418 166.849, 40.558 168.257, 38.362 174.124 C 36.238 179.797, 35.079 207.598, 36.553 217.500 L 37.149 221.500 35.081 218.500 C 32.378 214.578, 32.392 216.855, 35.099 221.443 C 36.389 223.630, 36.747 225, 36.027 225 C 34.688 225, 36.838 227.348, 41.415 230.884 C 43.112 232.195, 43.712 232.997, 42.750 232.665 C 41.788 232.334, 41 232.303, 41 232.597 C 41 234.761, 47.484 243, 49.187 243 C 49.634 243, 50 242.073, 50 240.941 C 50 239.801, 50.454 239.162, 51.016 239.510 C 51.575 239.856, 51.833 240.462, 51.588 240.857 C 51.344 241.252, 52.307 241.672, 53.729 241.790 C 56.295 242.002, 56.300 241.989, 54.407 239.897 C 53.358 238.738, 52.698 237.725, 52.940 237.645 C 53.181 237.565, 52.858 236.600, 52.220 235.500 C 51.389 234.066, 51.044 233.925, 51 235 C 50.952 236.176, 50.717 236.118, 49.908 234.729 C 49.341 233.755, 48.567 233.149, 48.189 233.383 C 47.455 233.837, 47.009 231.084, 46.724 224.331 C 46.626 222.010, 46.129 220.420, 45.604 220.745 C 45.065 221.078, 44.947 220.580, 45.330 219.582 C 45.699 218.622, 46 217.622, 46 217.359 C 46 217.097, 46.526 217.207, 47.170 217.605 C 47.957 218.091, 48.131 217.783, 47.701 216.664 C 47.350 215.749, 47.390 215, 47.791 215 C 48.191 215, 49.110 214.053, 49.833 212.895 C 50.922 211.152, 50.920 210.920, 49.824 211.542 C 48.042 212.554, 51.870 208.893, 55 206.592 C 56.602 205.414, 56.842 204.978, 55.666 205.378 C 54.474 205.783, 53.974 205.578, 54.237 204.790 C 54.459 204.123, 57.669 202.045, 61.369 200.172 C 68.174 196.727, 69.659 194.877, 64.051 196.832 C 60.117 198.204, 60.138 197.497, 64.093 195.452 C 65.794 194.572, 66.944 193.611, 66.648 193.315 C 65.724 192.390, 71.707 187.980, 73.651 188.153 C 77.576 188.501, 78.568 187.949, 78.788 185.294 C 78.911 183.806, 79.459 182.141, 80.006 181.594 C 81.388 180.212, 81.285 176.706, 79.888 177.569 C 79.277 177.947, 78.433 177.700, 78.013 177.021 C 77.535 176.248, 76.405 176.054, 74.993 176.502 C 73.386 177.012, 73.100 177.444, 74.001 178.001 C 74.847 178.524, 74.288 178.997, 72.310 179.432 C 70.433 179.844, 67.399 182.276, 63.995 186.098 C 58.351 192.434, 58.952 192.201, 51.250 191.038 C 50.402 190.910, 51.209 184.989, 52.155 184.405 C 52.928 183.926, 53.045 184.154, 52.507 185.095 C 52.067 185.868, 52.582 185.600, 53.653 184.500 C 56.572 181.502, 58.682 176, 56.912 176 C 56.410 176, 56 175.475, 56 174.833 C 56 174.192, 56.252 173.919, 56.561 174.227 C 56.869 174.536, 58.198 173.711, 59.515 172.394 C 60.832 171.077, 62.830 170, 63.955 170 C 65.140 170, 66 169.345, 66 168.441 C 66 167.584, 65.581 167.141, 65.069 167.457 C 64.557 167.774, 63.844 167.557, 63.485 166.976 C 63.126 166.394, 61.970 166.192, 60.916 166.527 C 59.628 166.935, 59 166.658, 59 165.683 C 59 164.671, 57.318 164.020, 53.457 163.538 C 48.584 162.929, 47.988 162.613, 48.525 160.923 C 48.860 159.865, 48.992 159.032, 48.817 159.070 C 48.643 159.109, 47.600 159.503, 46.500 159.945 M 166.323 159.638 C 164.353 160.442, 169.576 170.580, 171.742 170.155 C 174.347 169.644, 174.346 169.616, 171.550 164.099 C 168.988 159.043, 168.598 158.710, 166.323 159.638 M 151 160.845 C 151 161.533, 152.125 163.138, 153.500 164.412 C 154.875 165.687, 156 167.635, 156 168.742 C 156 169.849, 156.642 171.288, 157.427 171.939 C 158.226 172.602, 159.160 175.985, 159.550 179.619 C 160.597 189.398, 157.157 200.733, 151.319 206.740 C 148.944 209.184, 147 211.760, 147 212.465 C 147 214.043, 143.142 223.003, 141.666 224.851 C 141.073 225.594, 140.490 226.870, 140.370 227.687 C 140.184 228.951, 140.414 228.935, 141.905 227.586 C 145.486 224.346, 144.971 226.183, 140.569 232.352 C 138.076 235.845, 136.274 238.941, 136.564 239.231 C 137.422 240.089, 129.642 245.795, 124.136 248.346 C 121.333 249.644, 119.300 250.967, 119.619 251.286 C 119.937 251.604, 119.141 251.599, 117.849 251.275 C 115.516 250.690, 115.513 250.700, 117.405 252.843 C 118.453 254.029, 118.903 255.007, 118.405 255.015 C 117.907 255.024, 118.175 255.460, 119 255.985 C 120.132 256.706, 120.627 256.425, 121.017 254.839 C 121.446 253.096, 122.468 252.664, 127.017 252.305 C 134.661 251.702, 135.932 249.983, 130.500 247.592 C 129.120 246.985, 132.208 244.914, 133.687 245.455 C 134.341 245.694, 135.999 244.002, 137.373 241.695 C 138.746 239.388, 141.587 235.475, 143.685 233 C 147.423 228.591, 147.621 228.500, 153.500 228.500 C 158.176 228.500, 159.495 228.169, 159.479 227 C 159.467 226.175, 160.783 223.506, 162.402 221.068 C 164.981 217.186, 165.440 216.876, 166.103 218.568 C 166.738 220.190, 166.871 220.060, 166.930 217.758 C 166.992 215.310, 167.325 215.052, 170.041 215.350 C 174.571 215.846, 175.382 217.288, 175.444 224.950 C 175.499 231.846, 175.512 231.878, 176.764 228.264 C 178.796 222.400, 179.273 218.354, 179.724 203.176 C 180.135 189.343, 180.079 188.833, 178.075 188.309 C 176.934 188.011, 176 187.380, 176 186.908 C 176 186.436, 174.891 186.471, 173.535 186.987 C 170.583 188.109, 170.199 187.609, 169.626 181.900 C 169.081 176.468, 167.394 172.565, 163.500 167.727 C 160.359 163.825, 157.257 162.610, 158.452 165.750 C 158.818 166.713, 157.291 165.721, 155.059 163.547 C 152.826 161.373, 151 160.157, 151 160.845 M 75.015 162.679 C 75.007 163.327, 74.293 164.564, 73.429 165.429 C 72.113 166.744, 72.093 167, 73.306 167 C 75.515 167, 77.041 164.679, 75.958 162.966 C 75.404 162.090, 75.024 161.974, 75.015 162.679 M 138 168.833 C 138 169.712, 136.252 170.042, 131.806 170.001 C 130.273 169.987, 128.665 170.736, 128.074 171.738 C 127.281 173.085, 126.840 173.203, 126.202 172.238 C 125.290 170.859, 119 171.606, 119 173.094 C 119 173.558, 118.438 173.764, 117.750 173.552 C 114.099 172.427, 107.908 172.042, 108.485 172.976 C 108.833 173.539, 111.004 174.053, 113.309 174.118 C 117.268 174.230, 117.334 174.279, 114.500 175 C 112.850 175.420, 112.175 175.861, 113 175.981 C 115.887 176.401, 109.465 177.802, 104 177.944 C 96.345 178.143, 90.124 179.479, 88.702 181.228 C 88.041 182.042, 86.383 183.451, 85.018 184.361 C 82.575 185.987, 82.615 186.005, 87.518 185.473 C 90.258 185.175, 93.994 184.159, 95.821 183.216 C 98.967 181.590, 99.209 181.592, 100.431 183.250 C 102.254 185.724, 103.919 185.429, 103.258 182.750 L 102.704 180.500 105.262 182.840 C 106.835 184.279, 109.300 185.277, 111.660 185.432 C 116.079 185.722, 121.186 187.890, 120.410 189.146 C 120.119 189.616, 120.753 190, 121.819 190 C 122.884 190, 124.315 190.675, 125 191.500 C 126.046 192.760, 125.865 193.013, 123.872 193.079 C 121.332 193.163, 121.864 193.464, 126.291 194.442 C 127.826 194.781, 128.854 195.427, 128.576 195.876 C 128.299 196.326, 129.405 197.972, 131.036 199.534 C 134.357 202.716, 134.755 204, 132.421 204 C 131.215 204, 130.985 204.656, 131.449 206.769 C 131.833 208.516, 131.505 210.270, 130.561 211.519 C 128.564 214.161, 128.630 214.732, 131.082 216.044 C 132.794 216.960, 133.858 216.698, 137.082 214.565 C 141.943 211.348, 142.141 212.502, 137.500 217 C 135.575 218.866, 134 220.829, 134 221.363 C 134 221.897, 134.293 222.040, 134.651 221.682 C 135.009 221.324, 135.797 221.668, 136.401 222.446 C 137.006 223.225, 138.385 224.005, 139.468 224.181 C 141.072 224.441, 141.875 223.299, 143.817 218 C 145.985 212.082, 146.150 210.426, 145.661 199.500 C 145.365 192.900, 144.711 186.150, 144.207 184.500 C 143.703 182.850, 143.644 180.600, 144.075 179.500 C 144.721 177.852, 144.872 178.051, 144.930 180.628 C 144.968 182.348, 145.710 185.456, 146.579 187.534 C 147.447 189.611, 148.463 194.954, 148.837 199.406 L 149.516 207.500 152.758 201.090 C 154.541 197.565, 155.980 193.740, 155.956 192.590 C 155.928 191.254, 155.420 191.879, 154.548 194.324 C 152.503 200.060, 152.186 199.783, 152.233 192.302 C 152.287 183.617, 149.720 174.456, 146.792 172.889 C 145.601 172.251, 143.725 170.890, 142.624 169.865 C 140.557 167.939, 138 167.368, 138 168.833 M 172.471 174.047 C 172.115 174.624, 172.358 177.324, 173.011 180.047 C 173.919 183.830, 174.648 185, 176.100 185 C 178.294 185, 178.436 183.619, 176.881 177.443 C 175.820 173.228, 173.894 171.745, 172.471 174.047 M 232.110 176.250 C 231.648 177.488, 229.997 184.241, 228.442 191.257 C 226.886 198.273, 225.317 203.673, 224.954 203.257 C 224.591 202.841, 223.229 197.146, 221.927 190.602 C 219.522 178.511, 218.329 176, 214.988 176 C 212.472 176, 212.231 176.538, 210.436 186.161 C 208.391 197.122, 205.339 207.380, 202.386 213.217 C 199.253 219.411, 199.350 220.190, 203.215 219.813 C 206.251 219.517, 206.554 219.109, 208.637 212.500 C 209.851 208.650, 211.158 202.667, 211.543 199.205 C 211.928 195.742, 212.368 193.042, 212.522 193.205 C 212.675 193.367, 213.340 198.675, 214 205 C 214.659 211.325, 215.659 217.063, 216.222 217.750 C 216.784 218.438, 219.226 219, 221.647 219 C 226.976 219, 226.846 219.266, 230.118 201.751 C 231.428 194.739, 232.755 189.001, 233.066 189.001 C 233.378 189, 234.196 195.636, 234.885 203.748 C 235.794 214.439, 236.575 218.978, 237.724 220.248 C 239.628 222.351, 247.715 222.660, 250.356 220.729 C 252.061 219.482, 257.434 201.100, 256.396 200.062 C 255.536 199.202, 254.459 201.717, 252.571 208.995 C 251.572 212.848, 250.443 216, 250.063 216 C 249.683 216, 248.119 210.488, 246.588 203.750 C 245.057 197.012, 242.908 187.563, 241.813 182.750 L 239.821 174 236.386 174 C 233.739 174, 232.758 174.516, 232.110 176.250 M 122.667 175.667 C 121.412 176.921, 121.998 178.215, 123.552 177.618 C 124.442 177.277, 124.843 177.445, 124.493 178.011 C 124.147 178.570, 125.066 179, 126.608 179 C 128.107 179, 129.019 178.686, 128.635 178.302 C 128.251 177.918, 128.964 177.034, 130.219 176.337 C 132.329 175.166, 132.157 175.068, 127.917 175.035 C 125.396 175.016, 123.033 175.300, 122.667 175.667 M 399.961 177.750 C 399.615 184.377, 400.302 217.412, 400.839 219.963 C 401.638 223.766, 404.461 225.163, 409 224.002 C 411.388 223.392, 411.527 222.939, 412.093 213.932 C 412.657 204.951, 414.864 197, 416.792 197 C 417.284 197, 418.094 202.063, 418.593 208.250 L 419.500 219.500 423.195 219.807 C 427.511 220.166, 428.429 218.881, 431.889 207.645 C 434.315 199.765, 434.277 200, 433.125 200 C 432.644 200, 431.228 203.181, 429.978 207.070 C 427.535 214.666, 426.043 214.790, 426.015 207.399 C 425.987 199.892, 422.964 193.747, 418.759 192.647 C 417.228 192.247, 415.766 193.029, 413.445 195.490 L 410.243 198.885 409.632 195.192 C 409.297 193.162, 409.017 189.842, 409.011 187.815 C 408.998 183.612, 407.436 178.898, 405.687 177.786 C 404.146 176.805, 400.011 176.780, 399.961 177.750 M 27.882 179.750 C 27.816 180.162, 27.814 180.830, 27.876 181.232 C 27.990 181.979, 26.413 182.416, 19.752 183.487 C 13.726 184.456, 12.542 187.861, 13.500 201.468 C 13.927 207.536, 14.305 214.171, 14.341 216.214 C 14.415 220.526, 14.887 220.415, 16.099 215.801 L 16.965 212.500 16.568 216 C 16.349 217.925, 15.981 220.175, 15.749 221 C 15.517 221.825, 15.517 222.162, 15.747 221.750 C 15.978 221.338, 16.606 221, 17.142 221 C 17.679 221, 17.850 221.434, 17.523 221.964 C 17.195 222.493, 17.956 223.951, 19.214 225.202 C 22.570 228.543, 32.081 243, 30.922 243 C 29.266 243, 31.445 246.124, 37.025 251.750 C 41.417 256.179, 42.801 256.998, 45.866 256.985 C 48.580 256.973, 49.120 256.724, 48 256 C 47.099 255.418, 46.975 255.025, 47.691 255.015 C 48.346 255.007, 49.160 255.450, 49.500 256 C 49.840 256.550, 50.597 257, 51.181 257 C 51.811 257, 51.685 256.310, 50.872 255.309 C 49.985 254.215, 50.560 254.392, 52.500 255.809 C 55.547 258.035, 62 260.369, 62 259.245 C 62 258.907, 58.007 254.776, 53.126 250.065 C 44.013 241.269, 39.574 235.759, 40.696 234.637 C 41.047 234.287, 40.591 234, 39.684 234 C 38.694 234, 36.981 231.899, 35.403 228.750 C 33.956 225.863, 32.233 222.825, 31.574 222 C 29.946 219.963, 27.315 213.447, 25.953 208.078 C 25.224 205.206, 24.553 204.104, 24.040 204.935 C 23.452 205.887, 23.066 205.916, 22.531 205.050 C 21.550 203.463, 22.821 198.771, 24.029 199.518 C 24.563 199.848, 25 199.191, 25 198.059 C 25 196.927, 24.550 196, 24 196 C 22.668 196, 22.728 191.078, 24.109 187.117 C 24.970 184.646, 25.641 184.069, 27.109 184.535 C 28.384 184.939, 29 184.651, 29 183.649 C 29 182.832, 29.273 181.452, 29.607 180.582 C 29.941 179.712, 29.716 179, 29.107 179 C 28.498 179, 27.947 179.338, 27.882 179.750 M 261.494 182.009 C 260.570 183.505, 261.935 187, 263.445 187 C 265.364 187, 267.315 184.263, 266.643 182.513 C 265.990 180.810, 262.449 180.464, 261.494 182.009 M 287 189.900 C 282.570 190.491, 282.481 190.577, 281.279 195.446 C 280.608 198.166, 280.202 200.535, 280.377 200.711 C 280.553 200.886, 282.699 199.909, 285.148 198.541 C 290.804 195.379, 298 192.820, 298 193.970 C 298 194.455, 294.400 199.588, 290 205.378 C 285.600 211.168, 282 216.339, 282 216.869 C 282 219.004, 286.183 218.987, 296.500 216.810 C 299.250 216.230, 302.867 214.933, 304.538 213.927 C 308.236 211.702, 312.025 205.260, 311.929 201.364 C 311.861 198.602, 311.795 198.642, 310.062 202.500 C 309.074 204.700, 307.364 207.304, 306.264 208.286 C 304.242 210.091, 292.511 212.845, 291.434 211.768 C 291.114 211.447, 293.810 206.792, 297.426 201.422 C 301.042 196.052, 304 191.060, 304 190.329 C 304 188.912, 295.938 188.709, 287 189.900 M 379.655 190.829 C 377.229 193.509, 377.612 199.601, 380.659 206.777 L 383.323 213.054 380.786 215.777 C 375.796 221.134, 376.692 225, 382.924 225 C 388.829 225, 391.500 222.292, 391.500 216.303 C 391.500 212.281, 392.067 210.742, 394.750 207.487 C 396.538 205.319, 397.974 202.634, 397.941 201.522 C 397.884 199.552, 397.852 199.549, 396.691 201.414 C 396.036 202.467, 394.327 204.686, 392.892 206.347 L 390.285 209.365 388.155 202.933 C 386.703 198.547, 386.222 195.307, 386.643 192.750 C 387.242 189.118, 387.168 189, 384.286 189 C 382.649 189, 380.565 189.823, 379.655 190.829 M 334.667 191.667 C 334.300 192.033, 334 192.910, 334 193.614 C 334 196.631, 327.683 212.182, 326.989 210.876 C 326.587 210.119, 325.745 205.962, 325.118 201.637 C 324.491 197.313, 323.732 193.375, 323.430 192.887 C 323.129 192.399, 321.577 192, 319.981 192 C 317.442 192, 316.924 192.522, 315.828 196.179 C 314.851 199.440, 314.843 200.448, 315.788 200.763 C 316.599 201.033, 317 203.748, 317 208.976 C 317 217.395, 317.402 218.016, 322.832 217.985 C 326.597 217.963, 327.350 217.258, 330.822 210.500 L 333.904 204.500 334.052 211 C 334.282 221.154, 334.885 222.448, 339.540 222.794 C 341.718 222.956, 344.310 222.496, 345.301 221.771 C 347.010 220.520, 352 205.645, 352 201.801 C 352 197.593, 350.237 200.546, 348.598 207.500 C 347.625 211.625, 346.516 215, 346.133 215 C 345.750 215, 344.589 210.233, 343.554 204.408 C 342.519 198.582, 341.039 193.182, 340.265 192.408 C 338.786 190.929, 335.799 190.534, 334.667 191.667 M 437.788 192.750 C 436.897 193.774, 435.997 197.539, 435.619 201.824 C 435.087 207.845, 435.314 209.921, 436.892 213.489 C 440.995 222.765, 449.353 221.775, 451.554 211.753 C 451.935 210.018, 453.541 207.305, 455.123 205.723 C 456.706 204.141, 458 202.206, 458 201.423 C 458 199.070, 456.614 199.818, 454.604 203.256 L 452.709 206.500 451.401 201.500 C 449.218 193.150, 441.663 188.294, 437.788 192.750 M 463.395 191.978 C 460.999 192.946, 459.277 199.935, 461.149 201.092 C 461.888 201.549, 462.120 206.878, 461.870 217.633 L 461.500 233.500 466 233.500 L 470.500 233.500 470.792 226.355 C 471.059 219.811, 471.249 219.252, 473.049 219.723 C 475.826 220.449, 480.615 218.236, 482.504 215.354 C 484.379 212.492, 485.542 204.297, 484.604 200.558 C 483.021 194.251, 476.810 192.099, 472.532 196.377 L 470.155 198.754 469.497 196.133 C 468.807 193.384, 467.193 190.956, 466.128 191.063 C 465.782 191.098, 464.553 191.510, 463.395 191.978 M 259.957 196.158 C 259.127 199.242, 259.112 200.537, 259.903 200.801 C 260.600 201.033, 261 204.746, 261 210.976 C 261 221.422, 261.281 222, 266.359 222 C 270.631 222, 272.870 219.215, 275.481 210.655 C 278.174 201.828, 278.467 200, 277.193 200 C 276.750 200, 275.456 203.488, 274.319 207.750 C 273.182 212.012, 272.007 214.825, 271.708 214 C 271.409 213.175, 270.340 208, 269.332 202.500 L 267.500 192.500 264.305 192.191 C 261.307 191.901, 261.038 192.146, 259.957 196.158 M 51.547 194.924 C 51.233 195.433, 51.769 196.072, 52.738 196.346 C 53.707 196.619, 53.150 196.766, 51.500 196.671 C 49.433 196.553, 48.589 196.924, 48.787 197.862 C 48.946 198.612, 48.271 199.835, 47.287 200.581 C 45.167 202.189, 46.315 202.437, 49.066 200.965 C 51.466 199.680, 51.751 201.480, 49.360 202.819 C 48.457 203.324, 48.008 204.204, 48.361 204.774 C 49.203 206.137, 53.194 205.078, 52.702 203.623 C 52.493 203.005, 52.866 201.150, 53.531 199.500 C 54.764 196.441, 54.518 194, 52.976 194 C 52.504 194, 51.861 194.416, 51.547 194.924 M 439.667 194.667 C 438.488 195.846, 438.956 196.954, 440.399 196.400 C 442.380 195.640, 443.436 197.843, 443.129 202.093 C 442.892 205.381, 443.144 205.796, 445.683 206.294 C 449.854 207.112, 450.543 205.711, 448.546 200.481 C 447.381 197.430, 445.952 195.552, 444.327 194.934 C 441.409 193.825, 440.557 193.776, 439.667 194.667 M 78.250 197.341 C 73.705 198.456, 72.539 200.004, 76.250 199.994 C 79.703 199.986, 86 198.022, 86 196.953 C 86 195.825, 84.027 195.924, 78.250 197.341 M 67.500 200.464 C 65.850 201.219, 65.175 201.854, 66 201.874 C 66.825 201.894, 68.850 201.292, 70.500 200.536 C 72.150 199.781, 72.825 199.146, 72 199.126 C 71.175 199.106, 69.150 199.708, 67.500 200.464 M 471.872 200.653 C 471.015 201.686, 470.500 204.781, 470.500 208.903 C 470.500 214.982, 470.677 215.525, 472.748 215.819 C 474.410 216.055, 475.258 215.451, 475.998 213.504 C 477.962 208.341, 476.731 199, 474.087 199 C 473.624 199, 472.627 199.744, 471.872 200.653 M 96 208.366 C 91.875 208.864, 86.588 209.310, 84.250 209.359 C 81.912 209.407, 80 209.723, 80 210.060 C 80 210.396, 78.088 210.747, 75.750 210.838 C 65.624 211.234, 56.910 215.578, 54.455 221.455 C 52.691 225.675, 54.357 234.019, 57.107 234.738 C 58.148 235.010, 59 235.657, 59 236.176 C 59 236.694, 58.492 236.804, 57.870 236.420 C 57.158 235.980, 56.973 236.235, 57.370 237.111 C 57.716 237.875, 58.276 239.287, 58.616 240.250 C 58.955 241.213, 59.856 242, 60.617 242 C 62.141 242, 62.409 240.919, 61.250 239.450 C 60.838 238.928, 60.758 235.350, 61.073 231.500 C 61.389 227.650, 61.771 225.400, 61.923 226.500 C 62.165 228.249, 62.300 228.187, 63 226 C 64.095 222.581, 64.095 219.952, 63 222.500 C 61.441 226.128, 61.966 222.125, 63.578 218.097 C 64.445 215.929, 65.801 213.907, 66.589 213.604 C 67.804 213.138, 67.792 213.501, 66.512 215.977 C 64.760 219.365, 64.608 220.361, 65.970 219.519 C 66.503 219.189, 66.278 220.794, 65.470 223.085 C 63.671 228.184, 63.604 231.174, 65.250 232.947 C 66.262 234.037, 66.230 234.139, 65.080 233.483 C 64.011 232.872, 63.826 233.103, 64.330 234.418 C 64.699 235.378, 65 236.564, 65 237.053 C 65 237.542, 66.463 238.365, 68.250 238.881 C 71.470 239.811, 71.474 239.820, 68.715 239.910 C 66.248 239.990, 66.052 240.229, 67 242 C 67.589 243.100, 68.681 244, 69.428 244 C 70.175 244, 71.045 244.675, 71.362 245.500 C 71.678 246.325, 73.050 247, 74.410 247 C 75.769 247, 77.165 247.457, 77.510 248.016 C 77.856 248.575, 78.557 248.774, 79.069 248.457 C 79.581 248.141, 80 248.449, 80 249.141 C 80 250.120, 80.267 250.133, 81.200 249.200 C 81.860 248.540, 83.773 247.955, 85.450 247.900 C 88.426 247.803, 88.439 247.781, 86 246.989 L 83.500 246.178 85.750 245.472 C 89.283 244.364, 88.385 243, 84.122 243 C 81.896 243, 79.715 242.361, 79 241.500 C 78.315 240.675, 77.060 240, 76.211 240 C 75.362 240, 74.989 239.678, 75.382 239.285 C 75.775 238.891, 79.460 238.483, 83.569 238.377 C 90.890 238.189, 94 239.307, 94 242.128 C 94 243.728, 102.953 247.213, 108.257 247.678 C 114.508 248.226, 124.207 245.103, 129.304 240.901 L 133.041 237.820 130.613 235.910 C 129.277 234.860, 127.693 234, 127.092 234 C 126.492 234, 126 233.581, 126 233.068 C 126 231.800, 122.294 232.397, 117.705 234.404 C 112.334 236.754, 102.105 239.254, 100.455 238.621 C 99.690 238.328, 98.798 238.518, 98.473 239.044 C 97.548 240.541, 94 240.164, 93.362 238.500 C 93.042 237.666, 91.556 237, 90.015 237 C 86.627 237, 84.612 234.798, 85.485 232.048 C 86.217 229.740, 87.544 229.379, 88.417 231.250 C 88.871 232.223, 89.127 232.230, 89.573 231.282 C 89.888 230.612, 91.575 229.848, 93.323 229.586 C 102.020 228.278, 104.009 228.176, 103.459 229.067 C 103.090 229.664, 103.729 229.666, 105.186 229.071 C 106.459 228.552, 109.172 227.856, 111.215 227.525 C 115.614 226.812, 117.253 225, 113.499 225 C 111.151 225, 110.929 224.690, 111.353 222 C 111.859 218.789, 111.165 218.240, 109.141 220.250 C 108.131 221.252, 108.008 221.167, 108.520 219.823 C 109.036 218.467, 108.712 218.259, 106.829 218.735 C 105.548 219.059, 104.243 219.710, 103.930 220.181 C 103.616 220.651, 101.962 221.437, 100.255 221.927 C 97.449 222.732, 97.188 222.620, 97.544 220.773 C 97.760 219.649, 98.064 218.649, 98.219 218.551 C 98.730 218.228, 110.460 213.277, 112.500 212.524 C 114.477 211.794, 114.478 211.777, 112.536 211.055 C 111 210.483, 111.477 210.179, 114.729 209.659 C 117.015 209.294, 119.182 208.514, 119.546 207.926 C 120.310 206.690, 107.995 206.921, 96 208.366 M 444 208.958 C 444 211.157, 445.368 213, 447 213 C 448.567 213, 450.004 211.164, 449.998 209.168 C 449.997 208.801, 448.647 208.406, 446.998 208.290 C 445.349 208.175, 444 208.476, 444 208.958 M 381.750 217.712 C 379.591 220.112, 379.472 223, 381.531 223 C 383.358 223, 384.282 220.970, 383.829 217.956 C 383.504 215.794, 383.477 215.791, 381.750 217.712 M 82.052 221.597 C 79.055 222.299, 76.173 222.607, 75.647 222.282 C 75.121 221.957, 75.012 222.211, 75.405 222.845 C 75.797 223.480, 77.018 224, 78.118 224 C 79.218 224, 79.859 224.419, 79.543 224.931 C 78.602 226.453, 80.967 227.272, 82.538 225.968 C 83.336 225.306, 85.094 224.976, 86.444 225.234 C 89.286 225.777, 90.821 223.320, 88.787 221.483 C 87.808 220.600, 86.195 220.627, 82.052 221.597 M 170.340 227.266 C 170.232 229.993, 170.474 230.863, 171.075 229.913 C 171.832 228.717, 171.976 228.730, 172.015 230 C 172.056 231.333, 172.154 231.333, 172.895 230 C 173.355 229.175, 174.019 227.150, 174.373 225.500 L 175.016 222.500 173.544 225 C 172.462 226.836, 172.061 227.051, 172.035 225.809 C 171.959 222.176, 170.491 223.438, 170.340 227.266 M 169.459 240.067 C 169.096 240.653, 169.054 241.387, 169.365 241.698 C 169.675 242.009, 169.440 243.216, 168.842 244.381 C 168.002 246.019, 168.027 246.245, 168.952 245.376 C 169.610 244.757, 170.278 243.070, 170.437 241.626 C 170.748 238.793, 170.495 238.390, 169.459 240.067 M 163.480 248.968 C 163.801 249.487, 162.906 250.671, 161.491 251.598 C 158.009 253.880, 156.459 256.867, 157.985 258.357 C 158.869 259.220, 159.989 258.521, 162.563 255.500 C 166.336 251.071, 166.764 249.507, 164.448 248.618 C 163.594 248.291, 163.159 248.448, 163.480 248.968 M 42.800 255.200 C 43.733 256.133, 44.267 256.133, 45.200 255.200 C 46.133 254.267, 45.867 254, 44 254 C 42.133 254, 41.867 254.267, 42.800 255.200 M 129.730 255.805 C 130.596 258.158, 132.029 258.967, 135.357 258.985 C 137.554 258.996, 138.074 258.635, 137.607 257.418 C 137.273 256.548, 137 255.519, 137 255.131 C 137 254.743, 135.224 254.354, 133.053 254.268 C 129.729 254.135, 129.204 254.378, 129.730 255.805 M 149.295 263.887 C 146.251 266.642, 145.393 267.993, 146.185 268.785 C 146.978 269.578, 146.142 269.808, 143.155 269.621 C 140.886 269.479, 138.759 269.093, 138.429 268.763 C 138.099 268.432, 135.392 268.414, 132.414 268.721 C 127.715 269.206, 127 269.049, 127 267.533 C 127 266.346, 127.510 265.982, 128.593 266.397 C 131.941 267.682, 135.548 268.196, 134.104 267.182 C 133.337 266.643, 132.982 265.488, 133.317 264.616 C 133.999 262.838, 131.347 261, 128.100 261 C 125.633 261, 119 264.051, 119 265.185 C 119 265.633, 117.650 266, 116 266 C 114.206 266, 113.101 265.521, 113.250 264.809 C 113.558 263.342, 110.633 262.624, 107.525 263.404 C 105.335 263.954, 105.267 264.217, 106.269 268.243 C 106.852 270.584, 107.818 272.831, 108.415 273.235 C 109.020 273.644, 108.394 273.990, 107 274.016 L 104.500 274.063 107.500 276.556 C 109.150 277.928, 111.047 279.492, 111.716 280.032 C 113.815 281.729, 111.939 283.986, 107.891 284.633 C 105.134 285.074, 104 285.753, 104 286.961 C 104 289.595, 104.658 289.780, 110.154 288.693 C 113.749 287.982, 115.414 287.134, 115.752 285.841 C 116.290 283.784, 118.044 283.444, 119.680 285.080 C 120.863 286.263, 131 282.500, 131 280.877 C 131 280.395, 131.812 280, 132.804 280 C 134.743 280, 141.708 275.846, 146.359 271.916 C 156.534 263.317, 157.042 262.755, 155.892 261.370 C 154.323 259.479, 154.053 259.581, 149.295 263.887 M 44.310 273.875 C 43.268 275.543, 43.693 276.059, 48.065 278.439 C 52.859 281.048, 55.008 281.126, 54.992 278.691 C 54.986 277.762, 50.224 274.353, 45.992 272.247 C 45.713 272.108, 44.956 272.841, 44.310 273.875 M 58 281.802 C 58 283.047, 59.470 284.132, 62.750 285.307 C 68.612 287.408, 68.773 287.407, 69.201 285.250 C 69.456 283.967, 68.341 283.033, 65.024 281.751 C 59.311 279.542, 58 279.551, 58 281.802 M 73 286.345 C 73 288.422, 73.596 288.810, 77.640 289.364 C 84.435 290.295, 85 290.194, 85 288.045 C 85 286.560, 84.099 285.946, 81.250 285.488 C 79.188 285.156, 76.487 284.677, 75.250 284.423 C 73.417 284.047, 73 284.404, 73 286.345 M 88.667 286.667 C 88.300 287.033, 88 287.933, 88 288.667 C 88 289.630, 89.667 290, 94 290 C 99.333 290, 100 289.778, 100 288 C 100 286.250, 99.333 286, 94.667 286 C 91.733 286, 89.033 286.300, 88.667 286.667" stroke="none" fill="#6199b9" fill-rule="evenodd"/><path d="M 0 250.002 L 0 500.004 250.250 499.752 L 500.500 499.500 500.752 249.750 L 501.004 0 250.502 0 L 0 0 0 250.002 M 0.492 250.500 C 0.492 388, 0.608 444.101, 0.750 375.170 C 0.892 306.238, 0.892 193.738, 0.750 125.170 C 0.608 56.601, 0.492 113, 0.492 250.500 M 80.736 115.598 C 80.407 115.927, 80.380 116.827, 80.676 117.598 C 81.085 118.663, 83.471 119, 90.607 119 C 99.333 119, 100 118.858, 100 117 C 100 115.143, 99.333 115, 90.667 115 C 85.533 115, 81.064 115.269, 80.736 115.598 M 104.336 116.567 C 104.054 117.303, 104.082 118.324, 104.399 118.837 C 105.316 120.320, 114.083 121.317, 115.321 120.079 C 116.954 118.446, 115.078 117.141, 109.633 116.124 C 105.925 115.431, 104.734 115.531, 104.336 116.567 M 69.580 117.336 C 65.480 118.573, 64.516 119.687, 65.797 121.705 C 67.076 123.719, 77 120.370, 77 117.925 C 77 115.719, 75.370 115.590, 69.580 117.336 M 119.667 119.667 C 118.077 121.256, 119.320 122.808, 123.897 124.952 C 126.590 126.213, 129.290 126.939, 129.897 126.564 C 132.207 125.136, 130.823 123.170, 126.065 121.123 C 120.517 118.737, 120.582 118.751, 119.667 119.667 M 55.213 122.618 C 50.531 124.722, 50.045 125.216, 50.967 126.939 C 51.995 128.860, 52.067 128.858, 56.754 126.825 C 62.809 124.198, 63.276 123.730, 61.754 121.818 C 60.625 120.400, 59.973 120.480, 55.213 122.618 M 133.483 127.053 C 133.117 128.207, 132.971 129.248, 133.159 129.367 C 133.346 129.486, 135.467 130.844, 137.870 132.385 C 141.858 134.942, 142.379 135.049, 143.825 133.604 C 145.618 131.810, 144.945 131.074, 137.824 127.039 L 134.149 124.956 133.483 127.053 M 41.631 130.621 C 37.332 133.774, 36.936 134.365, 38.244 135.672 C 39.551 136.980, 40.261 136.775, 44.313 133.919 C 48.150 131.214, 48.740 130.383, 47.916 128.842 C 47.373 127.829, 46.833 127.011, 46.715 127.025 C 46.597 127.038, 44.309 128.657, 41.631 130.621 M 146.433 136.109 C 146.055 136.721, 147.570 139.041, 149.812 141.283 C 153.327 144.798, 154.094 145.167, 155.484 144.013 C 156.926 142.816, 156.706 142.283, 153.343 138.839 C 149.496 134.899, 147.635 134.164, 146.433 136.109 M 29.703 140.792 C 27.666 142.878, 26 145.080, 26 145.685 C 26 147.160, 28.782 148.162, 29.527 146.956 C 29.852 146.430, 31.104 145.964, 32.309 145.921 C 33.524 145.877, 33.910 145.607, 33.177 145.313 C 32.188 144.918, 32.410 144.193, 34.053 142.443 C 36.095 140.270, 36.204 137, 34.234 137 C 33.779 137, 31.740 138.706, 29.703 140.792 M 37 147.015 C 38.251 147.837, 38.127 148.102, 36.250 148.617 C 35.013 148.956, 34 149.581, 34 150.005 C 34 150.430, 32.350 151.087, 30.333 151.465 C 27.524 151.992, 26.459 151.784, 25.783 150.577 C 24.282 147.894, 22.361 148.809, 19.158 153.733 C 16.445 157.904, 16.272 158.573, 17.701 159.373 C 18.929 160.060, 19.952 159.511, 21.911 157.113 C 23.738 154.878, 26.074 153.532, 29.851 152.537 C 36.830 150.699, 42.193 145.972, 37.250 146.015 C 35.752 146.028, 35.716 146.172, 37 147.015 M 157.369 147.480 C 156.779 149.019, 162.435 157, 164.115 157 C 166.461 157, 165.944 153.717, 163.015 150.020 C 159.611 145.721, 158.275 145.120, 157.369 147.480 M 44.759 150.187 C 45.264 152.118, 46.163 152.331, 49.750 151.370 C 53.695 150.312, 52.487 147.890, 48.143 148.147 C 44.964 148.334, 44.368 148.693, 44.759 150.187 M 31.435 162.515 C 27.621 164.429, 23.038 166.887, 21.250 167.977 C 19.462 169.067, 18 169.688, 18 169.357 C 18 169.026, 17.325 169.315, 16.500 170 C 14.574 171.599, 14.601 170.672, 16.594 166.818 C 17.912 164.270, 17.955 163.587, 16.844 162.883 C 16.105 162.414, 15.184 162.024, 14.797 162.015 C 13.787 161.993, 9.859 171.191, 10.342 172.448 C 10.564 173.026, 10.690 173.768, 10.623 174.096 C 10.555 174.424, 11.141 175.465, 11.925 176.409 C 13.223 177.973, 13.117 178.067, 10.738 177.470 C 8.341 176.869, 8.035 177.158, 6.998 181.006 C 6.378 183.311, 5.964 186.390, 6.078 187.848 C 6.193 189.307, 5.960 191.259, 5.561 192.187 C 5.161 193.115, 4.984 199.482, 5.167 206.335 C 5.453 217.022, 5.779 219.104, 7.460 220.959 C 8.906 222.555, 9.102 223.319, 8.207 223.872 C 7.274 224.449, 7.379 225.767, 8.659 229.561 C 9.575 232.278, 10.880 235.400, 11.558 236.500 C 12.237 237.600, 13.126 239.625, 13.535 241 C 15.041 246.070, 23.526 257.717, 31.200 265.250 C 35.542 269.512, 39.493 273, 39.980 273 C 40.467 273, 41.149 272.105, 41.496 271.011 C 41.936 269.627, 41.354 268.305, 39.580 266.662 C 36.906 264.183, 37.042 262.706, 39.848 263.756 C 41.281 264.292, 41.319 264.152, 40.137 262.698 C 39.387 261.776, 38.305 261.312, 37.732 261.666 C 37.160 262.019, 36.971 261.855, 37.314 261.301 C 37.657 260.746, 35.894 258.160, 33.397 255.554 C 30.901 252.948, 27.335 248.437, 25.475 245.528 C 23.422 242.320, 21.141 240.001, 19.675 239.633 C 17.987 239.210, 16.650 237.590, 15.243 234.263 C 11.973 226.531, 11.666 225, 13.381 225 C 14.568 225, 14.717 224.405, 14.067 222.250 C 10.960 211.937, 9.855 203.585, 10.529 195.499 C 10.917 190.839, 11.601 187.253, 12.048 187.530 C 13.805 188.616, 14.094 185.761, 12.415 183.906 C 10.745 182.061, 10.739 181.832, 12.317 180.255 C 13.243 179.329, 14 179.073, 14 179.686 C 14 181.655, 21.311 181.001, 22.783 178.900 C 23.515 177.855, 24.763 177, 25.557 177 C 26.351 177, 27.032 176.438, 27.070 175.750 C 27.109 175.063, 27.468 175.331, 27.867 176.347 C 28.564 178.118, 28.654 178.120, 30.047 176.405 C 30.935 175.312, 31.014 174.908, 30.250 175.367 C 28.306 176.535, 28.780 175.010, 30.936 173.160 C 32.929 171.451, 39.389 160.055, 38.735 159.402 C 38.534 159.200, 35.249 160.601, 31.435 162.515 M 46.500 159.945 C 45.400 160.388, 44.163 160.554, 43.750 160.316 C 43.337 160.077, 43 160.385, 43 161 C 43 161.615, 42.550 161.840, 42 161.500 C 41.092 160.939, 40.619 162.500, 40.725 165.711 C 40.747 166.377, 40.289 166.827, 39.708 166.711 C 38.394 166.448, 33.544 176.279, 32.659 181 C 32.198 183.457, 32.296 184.053, 32.986 183 C 33.527 182.175, 33.976 180.488, 33.985 179.250 C 33.993 178.012, 34.450 177, 35 177 C 35.550 177, 36.003 176.213, 36.007 175.250 C 36.010 174.287, 36.907 172.150, 38 170.500 C 40.418 166.849, 40.558 168.257, 38.362 174.124 C 36.238 179.797, 35.079 207.598, 36.553 217.500 L 37.149 221.500 35.081 218.500 C 32.378 214.578, 32.392 216.855, 35.099 221.443 C 36.389 223.630, 36.747 225, 36.027 225 C 34.688 225, 36.838 227.348, 41.415 230.884 C 43.112 232.195, 43.712 232.997, 42.750 232.665 C 41.788 232.334, 41 232.303, 41 232.597 C 41 234.761, 47.484 243, 49.187 243 C 49.634 243, 50 242.073, 50 240.941 C 50 239.801, 50.454 239.162, 51.016 239.510 C 51.575 239.856, 51.833 240.462, 51.588 240.857 C 51.344 241.252, 52.307 241.672, 53.729 241.790 C 56.295 242.002, 56.300 241.989, 54.407 239.897 C 53.358 238.738, 52.698 237.725, 52.940 237.645 C 53.181 237.565, 52.858 236.600, 52.220 235.500 C 51.389 234.066, 51.044 233.925, 51 235 C 50.952 236.176, 50.717 236.118, 49.908 234.729 C 49.341 233.755, 48.567 233.149, 48.189 233.383 C 47.455 233.837, 47.009 231.084, 46.724 224.331 C 46.626 222.010, 46.129 220.420, 45.604 220.745 C 45.065 221.078, 44.947 220.580, 45.330 219.582 C 45.699 218.622, 46 217.622, 46 217.359 C 46 217.097, 46.526 217.207, 47.170 217.605 C 47.957 218.091, 48.131 217.783, 47.701 216.664 C 47.350 215.749, 47.390 215, 47.791 215 C 48.191 215, 49.110 214.053, 49.833 212.895 C 50.922 211.152, 50.920 210.920, 49.824 211.542 C 48.042 212.554, 51.870 208.893, 55 206.592 C 56.602 205.414, 56.842 204.978, 55.666 205.378 C 54.474 205.783, 53.974 205.578, 54.237 204.790 C 54.459 204.123, 57.669 202.045, 61.369 200.172 C 68.174 196.727, 69.659 194.877, 64.051 196.832 C 60.117 198.204, 60.138 197.497, 64.093 195.452 C 65.794 194.572, 66.944 193.611, 66.648 193.315 C 65.724 192.390, 71.707 187.980, 73.651 188.153 C 77.576 188.501, 78.568 187.949, 78.788 185.294 C 78.911 183.806, 79.459 182.141, 80.006 181.594 C 81.388 180.212, 81.285 176.706, 79.888 177.569 C 79.277 177.947, 78.433 177.700, 78.013 177.021 C 77.535 176.248, 76.405 176.054, 74.993 176.502 C 73.386 177.012, 73.100 177.444, 74.001 178.001 C 74.847 178.524, 74.288 178.997, 72.310 179.432 C 70.433 179.844, 67.399 182.276, 63.995 186.098 C 58.351 192.434, 58.952 192.201, 51.250 191.038 C 50.402 190.910, 51.209 184.989, 52.155 184.405 C 52.928 183.926, 53.045 184.154, 52.507 185.095 C 52.067 185.868, 52.582 185.600, 53.653 184.500 C 56.572 181.502, 58.682 176, 56.912 176 C 56.410 176, 56 175.475, 56 174.833 C 56 174.192, 56.252 173.919, 56.561 174.227 C 56.869 174.536, 58.198 173.711, 59.515 172.394 C 60.832 171.077, 62.830 170, 63.955 170 C 65.140 170, 66 169.345, 66 168.441 C 66 167.584, 65.581 167.141, 65.069 167.457 C 64.557 167.774, 63.844 167.557, 63.485 166.976 C 63.126 166.394, 61.970 166.192, 60.916 166.527 C 59.628 166.935, 59 166.658, 59 165.683 C 59 164.671, 57.318 164.020, 53.457 163.538 C 48.584 162.929, 47.988 162.613, 48.525 160.923 C 48.860 159.865, 48.992 159.032, 48.817 159.070 C 48.643 159.109, 47.600 159.503, 46.500 159.945 M 166.323 159.638 C 164.353 160.442, 169.576 170.580, 171.742 170.155 C 174.347 169.644, 174.346 169.616, 171.550 164.099 C 168.988 159.043, 168.598 158.710, 166.323 159.638 M 151 160.845 C 151 161.533, 152.125 163.138, 153.500 164.412 C 154.875 165.687, 156 167.635, 156 168.742 C 156 169.849, 156.642 171.288, 157.427 171.939 C 158.226 172.602, 159.160 175.985, 159.550 179.619 C 160.597 189.398, 157.157 200.733, 151.319 206.740 C 148.944 209.184, 147 211.760, 147 212.465 C 147 214.043, 143.142 223.003, 141.666 224.851 C 141.073 225.594, 140.490 226.870, 140.370 227.687 C 140.184 228.951, 140.414 228.935, 141.905 227.586 C 145.486 224.346, 144.971 226.183, 140.569 232.352 C 138.076 235.845, 136.274 238.941, 136.564 239.231 C 137.422 240.089, 129.642 245.795, 124.136 248.346 C 121.333 249.644, 119.300 250.967, 119.619 251.286 C 119.937 251.604, 119.141 251.599, 117.849 251.275 C 115.516 250.690, 115.513 250.700, 117.405 252.843 C 118.453 254.029, 118.903 255.007, 118.405 255.015 C 117.907 255.024, 118.175 255.460, 119 255.985 C 120.132 256.706, 120.627 256.425, 121.017 254.839 C 121.446 253.096, 122.468 252.664, 127.017 252.305 C 134.661 251.702, 135.932 249.983, 130.500 247.592 C 129.120 246.985, 132.208 244.914, 133.687 245.455 C 134.341 245.694, 135.999 244.002, 137.373 241.695 C 138.746 239.388, 141.587 235.475, 143.685 233 C 147.423 228.591, 147.621 228.500, 153.500 228.500 C 158.176 228.500, 159.495 228.169, 159.479 227 C 159.467 226.175, 160.783 223.506, 162.402 221.068 C 164.981 217.186, 165.440 216.876, 166.103 218.568 C 166.738 220.190, 166.871 220.060, 166.930 217.758 C 166.992 215.310, 167.325 215.052, 170.041 215.350 C 174.571 215.846, 175.382 217.288, 175.444 224.950 C 175.499 231.846, 175.512 231.878, 176.764 228.264 C 178.796 222.400, 179.273 218.354, 179.724 203.176 C 180.135 189.343, 180.079 188.833, 178.075 188.309 C 176.934 188.011, 176 187.380, 176 186.908 C 176 186.436, 174.891 186.471, 173.535 186.987 C 170.583 188.109, 170.199 187.609, 169.626 181.900 C 169.081 176.468, 167.394 172.565, 163.500 167.727 C 160.359 163.825, 157.257 162.610, 158.452 165.750 C 158.818 166.713, 157.291 165.721, 155.059 163.547 C 152.826 161.373, 151 160.157, 151 160.845 M 75.015 162.679 C 75.007 163.327, 74.293 164.564, 73.429 165.429 C 72.113 166.744, 72.093 167, 73.306 167 C 75.515 167, 77.041 164.679, 75.958 162.966 C 75.404 162.090, 75.024 161.974, 75.015 162.679 M 138 168.833 C 138 169.712, 136.252 170.042, 131.806 170.001 C 130.273 169.987, 128.665 170.736, 128.074 171.738 C 127.281 173.085, 126.840 173.203, 126.202 172.238 C 125.290 170.859, 119 171.606, 119 173.094 C 119 173.558, 118.438 173.764, 117.750 173.552 C 114.099 172.427, 107.908 172.042, 108.485 172.976 C 108.833 173.539, 111.004 174.053, 113.309 174.118 C 117.268 174.230, 117.334 174.279, 114.500 175 C 112.850 175.420, 112.175 175.861, 113 175.981 C 115.887 176.401, 109.465 177.802, 104 177.944 C 96.345 178.143, 90.124 179.479, 88.702 181.228 C 88.041 182.042, 86.383 183.451, 85.018 184.361 C 82.575 185.987, 82.615 186.005, 87.518 185.473 C 90.258 185.175, 93.994 184.159, 95.821 183.216 C 98.967 181.590, 99.209 181.592, 100.431 183.250 C 102.254 185.724, 103.919 185.429, 103.258 182.750 L 102.704 180.500 105.262 182.840 C 106.835 184.279, 109.300 185.277, 111.660 185.432 C 116.079 185.722, 121.186 187.890, 120.410 189.146 C 120.119 189.616, 120.753 190, 121.819 190 C 122.884 190, 124.315 190.675, 125 191.500 C 126.046 192.760, 125.865 193.013, 123.872 193.079 C 121.332 193.163, 121.864 193.464, 126.291 194.442 C 127.826 194.781, 128.854 195.427, 128.576 195.876 C 128.299 196.326, 129.405 197.972, 131.036 199.534 C 134.357 202.716, 134.755 204, 132.421 204 C 131.215 204, 130.985 204.656, 131.449 206.769 C 131.833 208.516, 131.505 210.270, 130.561 211.519 C 128.564 214.161, 128.630 214.732, 131.082 216.044 C 132.794 216.960, 133.858 216.698, 137.082 214.565 C 141.943 211.348, 142.141 212.502, 137.500 217 C 135.575 218.866, 134 220.829, 134 221.363 C 134 221.897, 134.293 222.040, 134.651 221.682 C 135.009 221.324, 135.797 221.668, 136.401 222.446 C 137.006 223.225, 138.385 224.005, 139.468 224.181 C 141.072 224.441, 141.875 223.299, 143.817 218 C 145.985 212.082, 146.150 210.426, 145.661 199.500 C 145.365 192.900, 144.711 186.150, 144.207 184.500 C 143.703 182.850, 143.644 180.600, 144.075 179.500 C 144.721 177.852, 144.872 178.051, 144.930 180.628 C 144.968 182.348, 145.710 185.456, 146.579 187.534 C 147.447 189.611, 148.463 194.954, 148.837 199.406 L 149.516 207.500 152.758 201.090 C 154.541 197.565, 155.980 193.740, 155.956 192.590 C 155.928 191.254, 155.420 191.879, 154.548 194.324 C 152.503 200.060, 152.186 199.783, 152.233 192.302 C 152.287 183.617, 149.720 174.456, 146.792 172.889 C 145.601 172.251, 143.725 170.890, 142.624 169.865 C 140.557 167.939, 138 167.368, 138 168.833 M 172.471 174.047 C 172.115 174.624, 172.358 177.324, 173.011 180.047 C 173.919 183.830, 174.648 185, 176.100 185 C 178.294 185, 178.436 183.619, 176.881 177.443 C 175.820 173.228, 173.894 171.745, 172.471 174.047 M 232.110 176.250 C 231.648 177.488, 229.997 184.241, 228.442 191.257 C 226.886 198.273, 225.317 203.673, 224.954 203.257 C 224.591 202.841, 223.229 197.146, 221.927 190.602 C 219.522 178.511, 218.329 176, 214.988 176 C 212.472 176, 212.231 176.538, 210.436 186.161 C 208.391 197.122, 205.339 207.380, 202.386 213.217 C 199.253 219.411, 199.350 220.190, 203.215 219.813 C 206.251 219.517, 206.554 219.109, 208.637 212.500 C 209.851 208.650, 211.158 202.667, 211.543 199.205 C 211.928 195.742, 212.368 193.042, 212.522 193.205 C 212.675 193.367, 213.340 198.675, 214 205 C 214.659 211.325, 215.659 217.063, 216.222 217.750 C 216.784 218.438, 219.226 219, 221.647 219 C 226.976 219, 226.846 219.266, 230.118 201.751 C 231.428 194.739, 232.755 189.001, 233.066 189.001 C 233.378 189, 234.196 195.636, 234.885 203.748 C 235.794 214.439, 236.575 218.978, 237.724 220.248 C 239.628 222.351, 247.715 222.660, 250.356 220.729 C 252.061 219.482, 257.434 201.100, 256.396 200.062 C 255.536 199.202, 254.459 201.717, 252.571 208.995 C 251.572 212.848, 250.443 216, 250.063 216 C 249.683 216, 248.119 210.488, 246.588 203.750 C 245.057 197.012, 242.908 187.563, 241.813 182.750 L 239.821 174 236.386 174 C 233.739 174, 232.758 174.516, 232.110 176.250 M 122.667 175.667 C 121.412 176.921, 121.998 178.215, 123.552 177.618 C 124.442 177.277, 124.843 177.445, 124.493 178.011 C 124.147 178.570, 125.066 179, 126.608 179 C 128.107 179, 129.019 178.686, 128.635 178.302 C 128.251 177.918, 128.964 177.034, 130.219 176.337 C 132.329 175.166, 132.157 175.068, 127.917 175.035 C 125.396 175.016, 123.033 175.300, 122.667 175.667 M 399.961 177.750 C 399.615 184.377, 400.302 217.412, 400.839 219.963 C 401.638 223.766, 404.461 225.163, 409 224.002 C 411.388 223.392, 411.527 222.939, 412.093 213.932 C 412.657 204.951, 414.864 197, 416.792 197 C 417.284 197, 418.094 202.063, 418.593 208.250 L 419.500 219.500 423.195 219.807 C 427.511 220.166, 428.429 218.881, 431.889 207.645 C 434.315 199.765, 434.277 200, 433.125 200 C 432.644 200, 431.228 203.181, 429.978 207.070 C 427.535 214.666, 426.043 214.790, 426.015 207.399 C 425.987 199.892, 422.964 193.747, 418.759 192.647 C 417.228 192.247, 415.766 193.029, 413.445 195.490 L 410.243 198.885 409.632 195.192 C 409.297 193.162, 409.017 189.842, 409.011 187.815 C 408.998 183.612, 407.436 178.898, 405.687 177.786 C 404.146 176.805, 400.011 176.780, 399.961 177.750 M 27.882 179.750 C 27.816 180.162, 27.814 180.830, 27.876 181.232 C 27.990 181.979, 26.413 182.416, 19.752 183.487 C 13.726 184.456, 12.542 187.861, 13.500 201.468 C 13.927 207.536, 14.305 214.171, 14.341 216.214 C 14.415 220.526, 14.887 220.415, 16.099 215.801 L 16.965 212.500 16.568 216 C 16.349 217.925, 15.981 220.175, 15.749 221 C 15.517 221.825, 15.517 222.162, 15.747 221.750 C 15.978 221.338, 16.606 221, 17.142 221 C 17.679 221, 17.850 221.434, 17.523 221.964 C 17.195 222.493, 17.956 223.951, 19.214 225.202 C 22.570 228.543, 32.081 243, 30.922 243 C 29.266 243, 31.445 246.124, 37.025 251.750 C 41.417 256.179, 42.801 256.998, 45.866 256.985 C 48.580 256.973, 49.120 256.724, 48 256 C 47.099 255.418, 46.975 255.025, 47.691 255.015 C 48.346 255.007, 49.160 255.450, 49.500 256 C 49.840 256.550, 50.597 257, 51.181 257 C 51.811 257, 51.685 256.310, 50.872 255.309 C 49.985 254.215, 50.560 254.392, 52.500 255.809 C 55.547 258.035, 62 260.369, 62 259.245 C 62 258.907, 58.007 254.776, 53.126 250.065 C 44.013 241.269, 39.574 235.759, 40.696 234.637 C 41.047 234.287, 40.591 234, 39.684 234 C 38.694 234, 36.981 231.899, 35.403 228.750 C 33.956 225.863, 32.233 222.825, 31.574 222 C 29.946 219.963, 27.315 213.447, 25.953 208.078 C 25.224 205.206, 24.553 204.104, 24.040 204.935 C 23.452 205.887, 23.066 205.916, 22.531 205.050 C 21.550 203.463, 22.821 198.771, 24.029 199.518 C 24.563 199.848, 25 199.191, 25 198.059 C 25 196.927, 24.550 196, 24 196 C 22.668 196, 22.728 191.078, 24.109 187.117 C 24.970 184.646, 25.641 184.069, 27.109 184.535 C 28.384 184.939, 29 184.651, 29 183.649 C 29 182.832, 29.273 181.452, 29.607 180.582 C 29.941 179.712, 29.716 179, 29.107 179 C 28.498 179, 27.947 179.338, 27.882 179.750 M 261.494 182.009 C 260.570 183.505, 261.935 187, 263.445 187 C 265.364 187, 267.315 184.263, 266.643 182.513 C 265.990 180.810, 262.449 180.464, 261.494 182.009 M 287 189.900 C 282.570 190.491, 282.481 190.577, 281.279 195.446 C 280.608 198.166, 280.202 200.535, 280.377 200.711 C 280.553 200.886, 282.699 199.909, 285.148 198.541 C 290.804 195.379, 298 192.820, 298 193.970 C 298 194.455, 294.400 199.588, 290 205.378 C 285.600 211.168, 282 216.339, 282 216.869 C 282 219.004, 286.183 218.987, 296.500 216.810 C 299.250 216.230, 302.867 214.933, 304.538 213.927 C 308.236 211.702, 312.025 205.260, 311.929 201.364 C 311.861 198.602, 311.795 198.642, 310.062 202.500 C 309.074 204.700, 307.364 207.304, 306.264 208.286 C 304.242 210.091, 292.511 212.845, 291.434 211.768 C 291.114 211.447, 293.810 206.792, 297.426 201.422 C 301.042 196.052, 304 191.060, 304 190.329 C 304 188.912, 295.938 188.709, 287 189.900 M 379.655 190.829 C 377.229 193.509, 377.612 199.601, 380.659 206.777 L 383.323 213.054 380.786 215.777 C 375.796 221.134, 376.692 225, 382.924 225 C 388.829 225, 391.500 222.292, 391.500 216.303 C 391.500 212.281, 392.067 210.742, 394.750 207.487 C 396.538 205.319, 397.974 202.634, 397.941 201.522 C 397.884 199.552, 397.852 199.549, 396.691 201.414 C 396.036 202.467, 394.327 204.686, 392.892 206.347 L 390.285 209.365 388.155 202.933 C 386.703 198.547, 386.222 195.307, 386.643 192.750 C 387.242 189.118, 387.168 189, 384.286 189 C 382.649 189, 380.565 189.823, 379.655 190.829 M 334.667 191.667 C 334.300 192.033, 334 192.910, 334 193.614 C 334 196.631, 327.683 212.182, 326.989 210.876 C 326.587 210.119, 325.745 205.962, 325.118 201.637 C 324.491 197.313, 323.732 193.375, 323.430 192.887 C 323.129 192.399, 321.577 192, 319.981 192 C 317.442 192, 316.924 192.522, 315.828 196.179 C 314.851 199.440, 314.843 200.448, 315.788 200.763 C 316.599 201.033, 317 203.748, 317 208.976 C 317 217.395, 317.402 218.016, 322.832 217.985 C 326.597 217.963, 327.350 217.258, 330.822 210.500 L 333.904 204.500 334.052 211 C 334.282 221.154, 334.885 222.448, 339.540 222.794 C 341.718 222.956, 344.310 222.496, 345.301 221.771 C 347.010 220.520, 352 205.645, 352 201.801 C 352 197.593, 350.237 200.546, 348.598 207.500 C 347.625 211.625, 346.516 215, 346.133 215 C 345.750 215, 344.589 210.233, 343.554 204.408 C 342.519 198.582, 341.039 193.182, 340.265 192.408 C 338.786 190.929, 335.799 190.534, 334.667 191.667 M 437.788 192.750 C 436.897 193.774, 435.997 197.539, 435.619 201.824 C 435.087 207.845, 435.314 209.921, 436.892 213.489 C 440.995 222.765, 449.353 221.775, 451.554 211.753 C 451.935 210.018, 453.541 207.305, 455.123 205.723 C 456.706 204.141, 458 202.206, 458 201.423 C 458 199.070, 456.614 199.818, 454.604 203.256 L 452.709 206.500 451.401 201.500 C 449.218 193.150, 441.663 188.294, 437.788 192.750 M 463.395 191.978 C 460.999 192.946, 459.277 199.935, 461.149 201.092 C 461.888 201.549, 462.120 206.878, 461.870 217.633 L 461.500 233.500 466 233.500 L 470.500 233.500 470.792 226.355 C 471.059 219.811, 471.249 219.252, 473.049 219.723 C 475.826 220.449, 480.615 218.236, 482.504 215.354 C 484.379 212.492, 485.542 204.297, 484.604 200.558 C 483.021 194.251, 476.810 192.099, 472.532 196.377 L 470.155 198.754 469.497 196.133 C 468.807 193.384, 467.193 190.956, 466.128 191.063 C 465.782 191.098, 464.553 191.510, 463.395 191.978 M 259.957 196.158 C 259.127 199.242, 259.112 200.537, 259.903 200.801 C 260.600 201.033, 261 204.746, 261 210.976 C 261 221.422, 261.281 222, 266.359 222 C 270.631 222, 272.870 219.215, 275.481 210.655 C 278.174 201.828, 278.467 200, 277.193 200 C 276.750 200, 275.456 203.488, 274.319 207.750 C 273.182 212.012, 272.007 214.825, 271.708 214 C 271.409 213.175, 270.340 208, 269.332 202.500 L 267.500 192.500 264.305 192.191 C 261.307 191.901, 261.038 192.146, 259.957 196.158 M 51.547 194.924 C 51.233 195.433, 51.769 196.072, 52.738 196.346 C 53.707 196.619, 53.150 196.766, 51.500 196.671 C 49.433 196.553, 48.589 196.924, 48.787 197.862 C 48.946 198.612, 48.271 199.835, 47.287 200.581 C 45.167 202.189, 46.315 202.437, 49.066 200.965 C 51.466 199.680, 51.751 201.480, 49.360 202.819 C 48.457 203.324, 48.008 204.204, 48.361 204.774 C 49.203 206.137, 53.194 205.078, 52.702 203.623 C 52.493 203.005, 52.866 201.150, 53.531 199.500 C 54.764 196.441, 54.518 194, 52.976 194 C 52.504 194, 51.861 194.416, 51.547 194.924 M 439.667 194.667 C 438.488 195.846, 438.956 196.954, 440.399 196.400 C 442.380 195.640, 443.436 197.843, 443.129 202.093 C 442.892 205.381, 443.144 205.796, 445.683 206.294 C 449.854 207.112, 450.543 205.711, 448.546 200.481 C 447.381 197.430, 445.952 195.552, 444.327 194.934 C 441.409 193.825, 440.557 193.776, 439.667 194.667 M 78.250 197.341 C 73.705 198.456, 72.539 200.004, 76.250 199.994 C 79.703 199.986, 86 198.022, 86 196.953 C 86 195.825, 84.027 195.924, 78.250 197.341 M 67.500 200.464 C 65.850 201.219, 65.175 201.854, 66 201.874 C 66.825 201.894, 68.850 201.292, 70.500 200.536 C 72.150 199.781, 72.825 199.146, 72 199.126 C 71.175 199.106, 69.150 199.708, 67.500 200.464 M 471.872 200.653 C 471.015 201.686, 470.500 204.781, 470.500 208.903 C 470.500 214.982, 470.677 215.525, 472.748 215.819 C 474.410 216.055, 475.258 215.451, 475.998 213.504 C 477.962 208.341, 476.731 199, 474.087 199 C 473.624 199, 472.627 199.744, 471.872 200.653 M 96 208.366 C 91.875 208.864, 86.588 209.310, 84.250 209.359 C 81.912 209.407, 80 209.723, 80 210.060 C 80 210.396, 78.088 210.747, 75.750 210.838 C 65.624 211.234, 56.910 215.578, 54.455 221.455 C 52.691 225.675, 54.357 234.019, 57.107 234.738 C 58.148 235.010, 59 235.657, 59 236.176 C 59 236.694, 58.492 236.804, 57.870 236.420 C 57.158 235.980, 56.973 236.235, 57.370 237.111 C 57.716 237.875, 58.276 239.287, 58.616 240.250 C 58.955 241.213, 59.856 242, 60.617 242 C 62.141 242, 62.409 240.919, 61.250 239.450 C 60.838 238.928, 60.758 235.350, 61.073 231.500 C 61.389 227.650, 61.771 225.400, 61.923 226.500 C 62.165 228.249, 62.300 228.187, 63 226 C 64.095 222.581, 64.095 219.952, 63 222.500 C 61.441 226.128, 61.966 222.125, 63.578 218.097 C 64.445 215.929, 65.801 213.907, 66.589 213.604 C 67.804 213.138, 67.792 213.501, 66.512 215.977 C 64.760 219.365, 64.608 220.361, 65.970 219.519 C 66.503 219.189, 66.278 220.794, 65.470 223.085 C 63.671 228.184, 63.604 231.174, 65.250 232.947 C 66.262 234.037, 66.230 234.139, 65.080 233.483 C 64.011 232.872, 63.826 233.103, 64.330 234.418 C 64.699 235.378, 65 236.564, 65 237.053 C 65 237.542, 66.463 238.365, 68.250 238.881 C 71.470 239.811, 71.474 239.820, 68.715 239.910 C 66.248 239.990, 66.052 240.229, 67 242 C 67.589 243.100, 68.681 244, 69.428 244 C 70.175 244, 71.045 244.675, 71.362 245.500 C 71.678 246.325, 73.050 247, 74.410 247 C 75.769 247, 77.165 247.457, 77.510 248.016 C 77.856 248.575, 78.557 248.774, 79.069 248.457 C 79.581 248.141, 80 248.449, 80 249.141 C 80 250.120, 80.267 250.133, 81.200 249.200 C 81.860 248.540, 83.773 247.955, 85.450 247.900 C 88.426 247.803, 88.439 247.781, 86 246.989 L 83.500 246.178 85.750 245.472 C 89.283 244.364, 88.385 243, 84.122 243 C 81.896 243, 79.715 242.361, 79 241.500 C 78.315 240.675, 77.060 240, 76.211 240 C 75.362 240, 74.989 239.678, 75.382 239.285 C 75.775 238.891, 79.460 238.483, 83.569 238.377 C 90.890 238.189, 94 239.307, 94 242.128 C 94 243.728, 102.953 247.213, 108.257 247.678 C 114.508 248.226, 124.207 245.103, 129.304 240.901 L 133.041 237.820 130.613 235.910 C 129.277 234.860, 127.693 234, 127.092 234 C 126.492 234, 126 233.581, 126 233.068 C 126 231.800, 122.294 232.397, 117.705 234.404 C 112.334 236.754, 102.105 239.254, 100.455 238.621 C 99.690 238.328, 98.798 238.518, 98.473 239.044 C 97.548 240.541, 94 240.164, 93.362 238.500 C 93.042 237.666, 91.556 237, 90.015 237 C 86.627 237, 84.612 234.798, 85.485 232.048 C 86.217 229.740, 87.544 229.379, 88.417 231.250 C 88.871 232.223, 89.127 232.230, 89.573 231.282 C 89.888 230.612, 91.575 229.848, 93.323 229.586 C 102.020 228.278, 104.009 228.176, 103.459 229.067 C 103.090 229.664, 103.729 229.666, 105.186 229.071 C 106.459 228.552, 109.172 227.856, 111.215 227.525 C 115.614 226.812, 117.253 225, 113.499 225 C 111.151 225, 110.929 224.690, 111.353 222 C 111.859 218.789, 111.165 218.240, 109.141 220.250 C 108.131 221.252, 108.008 221.167, 108.520 219.823 C 109.036 218.467, 108.712 218.259, 106.829 218.735 C 105.548 219.059, 104.243 219.710, 103.930 220.181 C 103.616 220.651, 101.962 221.437, 100.255 221.927 C 97.449 222.732, 97.188 222.620, 97.544 220.773 C 97.760 219.649, 98.064 218.649, 98.219 218.551 C 98.730 218.228, 110.460 213.277, 112.500 212.524 C 114.477 211.794, 114.478 211.777, 112.536 211.055 C 111 210.483, 111.477 210.179, 114.729 209.659 C 117.015 209.294, 119.182 208.514, 119.546 207.926 C 120.310 206.690, 107.995 206.921, 96 208.366 M 444 208.958 C 444 211.157, 445.368 213, 447 213 C 448.567 213, 450.004 211.164, 449.998 209.168 C 449.997 208.801, 448.647 208.406, 446.998 208.290 C 445.349 208.175, 444 208.476, 444 208.958 M 381.750 217.712 C 379.591 220.112, 379.472 223, 381.531 223 C 383.358 223, 384.282 220.970, 383.829 217.956 C 383.504 215.794, 383.477 215.791, 381.750 217.712 M 82.052 221.597 C 79.055 222.299, 76.173 222.607, 75.647 222.282 C 75.121 221.957, 75.012 222.211, 75.405 222.845 C 75.797 223.480, 77.018 224, 78.118 224 C 79.218 224, 79.859 224.419, 79.543 224.931 C 78.602 226.453, 80.967 227.272, 82.538 225.968 C 83.336 225.306, 85.094 224.976, 86.444 225.234 C 89.286 225.777, 90.821 223.320, 88.787 221.483 C 87.808 220.600, 86.195 220.627, 82.052 221.597 M 170.340 227.266 C 170.232 229.993, 170.474 230.863, 171.075 229.913 C 171.832 228.717, 171.976 228.730, 172.015 230 C 172.056 231.333, 172.154 231.333, 172.895 230 C 173.355 229.175, 174.019 227.150, 174.373 225.500 L 175.016 222.500 173.544 225 C 172.462 226.836, 172.061 227.051, 172.035 225.809 C 171.959 222.176, 170.491 223.438, 170.340 227.266 M 169.459 240.067 C 169.096 240.653, 169.054 241.387, 169.365 241.698 C 169.675 242.009, 169.440 243.216, 168.842 244.381 C 168.002 246.019, 168.027 246.245, 168.952 245.376 C 169.610 244.757, 170.278 243.070, 170.437 241.626 C 170.748 238.793, 170.495 238.390, 169.459 240.067 M 163.480 248.968 C 163.801 249.487, 162.906 250.671, 161.491 251.598 C 158.009 253.880, 156.459 256.867, 157.985 258.357 C 158.869 259.220, 159.989 258.521, 162.563 255.500 C 166.336 251.071, 166.764 249.507, 164.448 248.618 C 163.594 248.291, 163.159 248.448, 163.480 248.968 M 42.800 255.200 C 43.733 256.133, 44.267 256.133, 45.200 255.200 C 46.133 254.267, 45.867 254, 44 254 C 42.133 254, 41.867 254.267, 42.800 255.200 M 129.730 255.805 C 130.596 258.158, 132.029 258.967, 135.357 258.985 C 137.554 258.996, 138.074 258.635, 137.607 257.418 C 137.273 256.548, 137 255.519, 137 255.131 C 137 254.743, 135.224 254.354, 133.053 254.268 C 129.729 254.135, 129.204 254.378, 129.730 255.805 M 149.295 263.887 C 146.251 266.642, 145.393 267.993, 146.185 268.785 C 146.978 269.578, 146.142 269.808, 143.155 269.621 C 140.886 269.479, 138.759 269.093, 138.429 268.763 C 138.099 268.432, 135.392 268.414, 132.414 268.721 C 127.715 269.206, 127 269.049, 127 267.533 C 127 266.346, 127.510 265.982, 128.593 266.397 C 131.941 267.682, 135.548 268.196, 134.104 267.182 C 133.337 266.643, 132.982 265.488, 133.317 264.616 C 133.999 262.838, 131.347 261, 128.100 261 C 125.633 261, 119 264.051, 119 265.185 C 119 265.633, 117.650 266, 116 266 C 114.206 266, 113.101 265.521, 113.250 264.809 C 113.558 263.342, 110.633 262.624, 107.525 263.404 C 105.335 263.954, 105.267 264.217, 106.269 268.243 C 106.852 270.584, 107.818 272.831, 108.415 273.235 C 109.020 273.644, 108.394 273.990, 107 274.016 L 104.500 274.063 107.500 276.556 C 109.150 277.928, 111.047 279.492, 111.716 280.032 C 113.815 281.729, 111.939 283.986, 107.891 284.633 C 105.134 285.074, 104 285.753, 104 286.961 C 104 289.595, 104.658 289.780, 110.154 288.693 C 113.749 287.982, 115.414 287.134, 115.752 285.841 C 116.290 283.784, 118.044 283.444, 119.680 285.080 C 120.863 286.263, 131 282.500, 131 280.877 C 131 280.395, 131.812 280, 132.804 280 C 134.743 280, 141.708 275.846, 146.359 271.916 C 156.534 263.317, 157.042 262.755, 155.892 261.370 C 154.323 259.479, 154.053 259.581, 149.295 263.887 M 44.310 273.875 C 43.268 275.543, 43.693 276.059, 48.065 278.439 C 52.859 281.048, 55.008 281.126, 54.992 278.691 C 54.986 277.762, 50.224 274.353, 45.992 272.247 C 45.713 272.108, 44.956 272.841, 44.310 273.875 M 58 281.802 C 58 283.047, 59.470 284.132, 62.750 285.307 C 68.612 287.408, 68.773 287.407, 69.201 285.250 C 69.456 283.967, 68.341 283.033, 65.024 281.751 C 59.311 279.542, 58 279.551, 58 281.802 M 73 286.345 C 73 288.422, 73.596 288.810, 77.640 289.364 C 84.435 290.295, 85 290.194, 85 288.045 C 85 286.560, 84.099 285.946, 81.250 285.488 C 79.188 285.156, 76.487 284.677, 75.250 284.423 C 73.417 284.047, 73 284.404, 73 286.345 M 88.667 286.667 C 88.300 287.033, 88 287.933, 88 288.667 C 88 289.630, 89.667 290, 94 290 C 99.333 290, 100 289.778, 100 288 C 100 286.250, 99.333 286, 94.667 286 C 91.733 286, 89.033 286.300, 88.667 286.667" stroke="none" fill="#f8faf2" fill-rule="evenodd"/></svg>